<svg width="15" height="13" viewBox="0 0 15 13" fill="none" xmlns="http://www.w3.org/2000/svg">
<path d="M5.78329 2.67754L4.44566 6.90257C4.3632 7.16302 4.1215 7.34003 3.8483 7.34003H0.626588C0.280533 7.34003 0 7.0595 0 6.71344C0 6.36739 0.280533 6.08686 0.626588 6.08686H3.38943L5.17801 0.437465C5.36193 -0.143463 6.18286 -0.146632 6.37126 0.432859L9.57032 10.2727L11.1384 6.47434C11.2352 6.23984 11.4639 6.08686 11.7176 6.08686H14.3734C14.7195 6.08686 15 6.36739 15 6.71344C15 7.0595 14.7195 7.34003 14.3734 7.34003H12.1368L10.0795 12.3233C9.85723 12.8618 9.08461 12.832 8.90448 12.2779L5.78329 2.67754Z" fill="#D9DAE6"/>
</svg>
