<svg width="145" height="145" viewBox="0 0 145 145" fill="none" xmlns="http://www.w3.org/2000/svg">
<g opacity="0.3" clip-path="url(#clip0)">
<path d="M127.941 38.3823C137.348 38.3823 145 30.7297 145 21.3235C145 11.9172 137.348 4.26465 127.941 4.26465C118.535 4.26465 110.883 11.9172 110.883 21.3235C110.883 30.7297 118.535 38.3823 127.941 38.3823ZM127.941 12.7941C132.645 12.7941 136.471 16.6204 136.471 21.3235C136.471 26.0266 132.645 29.8529 127.941 29.8529C123.238 29.8529 119.412 26.0266 119.412 21.3235C119.412 16.6204 123.238 12.7941 127.941 12.7941Z" fill="#0278D5"/>
<path d="M120.832 132.206C115.744 132.206 113.344 131.076 110.564 129.769C107.328 128.246 103.66 126.52 96.6647 126.52C89.6697 126.52 86.0018 128.246 82.7654 129.769C79.9865 131.077 77.5864 132.206 72.498 132.206C67.4099 132.206 65.01 131.076 62.2312 129.769C58.9951 128.246 55.3272 126.52 48.3322 126.52C41.3372 126.52 37.6693 128.246 34.433 129.769C31.6541 131.077 29.2542 132.206 24.1658 132.206C19.0775 132.206 16.6776 131.076 13.8987 129.769C10.6626 128.246 6.99497 126.52 0 126.52V135.049C5.08808 135.049 7.48797 136.179 10.2669 137.486C13.5032 139.009 17.1711 140.735 24.1661 140.735C31.1611 140.735 34.8287 139.009 38.0651 137.486C40.8439 136.178 43.2441 135.049 48.3322 135.049C53.4203 135.049 55.8202 136.179 58.599 137.486C61.8354 139.009 65.5033 140.735 72.498 140.735C79.493 140.735 83.1609 139.009 86.3973 137.486C89.1761 136.178 91.5763 135.049 96.6644 135.049C101.753 135.049 104.153 136.179 106.932 137.486C110.169 139.009 113.837 140.735 120.832 140.735C127.828 140.735 131.496 139.009 134.732 137.486C137.511 136.179 139.911 135.049 145 135.049V126.52C138.005 126.52 134.337 128.246 131.1 129.769C128.321 131.076 125.921 132.206 120.832 132.206Z" fill="#0278D5"/>
<path d="M120.858 93.7787C106.914 86.475 89.7399 82.4525 72.5 82.4525C65.2705 82.4525 58.0537 83.1624 51.0809 84.5226C50.8302 77.5393 50.5206 53.0431 57.459 36.3212C59.3218 41.0021 61.2122 48.1955 59.7747 56.1014L68.1665 57.6271C70.18 46.5528 67.1074 36.8548 64.577 31.2217C69.0015 31.45 76.154 32.498 83.2232 36.4255L87.3653 28.9694C78.4734 24.0297 69.6227 22.8544 64.2842 22.6613C67.114 19.1097 72.6786 13.7867 81.1639 12.7649L80.1441 4.29663C69.1795 5.61698 61.9483 12.1042 58.0378 16.8386C54.8566 12.1181 48.5079 6.2112 36.1877 4.31568L34.8907 12.7459C44.4979 14.224 49.0475 18.6596 51.1159 21.8058C50.5842 21.9059 50.0421 22.0188 49.4891 22.149C40.5124 24.2611 32.9869 29.5485 27.7263 37.4396L34.8233 42.1709C39.5452 35.0884 45.6341 31.9555 50.7 30.6124C41.0674 51.1618 42.3855 82.1329 42.6286 86.5227C36.0717 88.3605 29.8376 90.7957 24.1428 93.7787C16.2775 97.8987 7.975 103.928 5.21858 109.836C3.70262 109.602 1.98565 109.462 0 109.462V117.992C5.08808 117.992 7.48797 119.121 10.2669 120.429C13.5032 121.952 17.1711 123.678 24.1661 123.678C31.1611 123.678 34.8287 121.952 38.0651 120.429C40.8439 119.121 43.2441 117.992 48.3322 117.992C53.4203 117.992 55.8202 119.121 58.599 120.429C61.8354 121.952 65.5033 123.678 72.498 123.678C79.493 123.678 83.1609 121.952 86.3973 120.429C89.1761 119.121 91.5763 117.992 96.6644 117.992C101.753 117.992 104.153 119.121 106.932 120.429C110.169 121.952 113.837 123.678 120.832 123.678C127.828 123.678 131.496 121.952 134.732 120.429C137.511 119.121 139.911 117.992 145 117.992V109.462C143.014 109.462 141.297 109.602 139.782 109.836C137.025 103.928 128.722 97.8987 120.858 93.7787ZM120.832 115.149C115.744 115.149 113.344 114.019 110.564 112.711C107.328 111.188 103.66 109.462 96.6647 109.462C89.6697 109.462 86.0018 111.188 82.7654 112.711C79.9865 114.019 77.5864 115.149 72.498 115.149C67.4099 115.149 65.01 114.019 62.2312 112.711C58.9951 111.188 55.3272 109.462 48.3322 109.462C41.3372 109.462 37.6693 111.188 34.433 112.711C31.6541 114.019 29.2542 115.149 24.1658 115.149C19.0775 115.149 16.6776 114.019 13.8987 112.711C13.7602 112.646 13.6203 112.581 13.4802 112.515C15.1221 110.13 19.7789 105.534 29.0688 100.836C41.6338 94.4815 57.0578 90.9819 72.5 90.9819C87.9422 90.9819 103.366 94.4815 115.931 100.836C125.219 105.533 129.877 110.128 131.52 112.514C131.379 112.58 131.239 112.646 131.1 112.711C128.321 114.019 125.921 115.149 120.832 115.149Z" fill="#0278D5"/>
</g>
<defs>
<clipPath id="clip0">
<rect width="145" height="145" fill="white"/>
</clipPath>
</defs>
</svg>
