<svg width="16" height="14" viewBox="0 0 16 14" fill="none" xmlns="http://www.w3.org/2000/svg">
<path d="M4.50824 2.6497C4.34397 2.48526 4.07713 2.48526 3.91286 2.6497L0.123334 6.43905C-0.0411113 6.6035 -0.0411113 6.86999 0.123334 7.03443L3.91286 10.824C3.99499 10.9063 4.10291 10.9473 4.21064 10.9473C4.31837 10.9473 4.42611 10.9063 4.50842 10.824C4.67286 10.6595 4.67286 10.393 4.50842 10.2286L1.01649 6.73683L4.50824 3.24508C4.67269 3.08064 4.67269 2.81397 4.50824 2.6497Z" fill="#6B6D85"/>
<path d="M15.8766 6.43905L12.0871 2.6497C11.9229 2.48526 11.656 2.48526 11.4917 2.6497C11.3273 2.81415 11.3273 3.08064 11.4917 3.24508L14.9835 6.73683L11.4917 10.2286C11.3273 10.393 11.3273 10.6595 11.4917 10.824C11.5739 10.9063 11.6818 10.9473 11.7895 10.9473C11.8973 10.9473 12.005 10.9063 12.0873 10.824L15.8768 7.03443C16.0411 6.87016 16.0411 6.6035 15.8766 6.43905Z" fill="#6B6D85"/>
<path d="M10.0156 0.017749C9.79324 -0.0487402 9.55822 0.0773049 9.49137 0.300061L5.70202 12.9318C5.63518 13.1545 5.76158 13.3892 5.98433 13.456C6.02469 13.4681 6.0654 13.4738 6.1054 13.4738C6.28656 13.4738 6.45385 13.3561 6.5086 13.1737L10.2981 0.542018C10.3648 0.319261 10.2384 0.0845937 10.0156 0.017749Z" fill="#6B6D85"/>
</svg>
