<svg viewBox="0 0 11 13" fill="none" xmlns="http://www.w3.org/2000/svg">
<path d="M8.45496 0.00222687C7.50714 0.00525655 6.6986 0.68841 6.53823 1.62172C6.37786 2.55504 6.91205 3.46849 7.80459 3.78718V4.55067C7.80459 4.90953 7.51341 5.20044 7.15422 5.20044H3.25202C3.03035 5.20132 2.81044 5.23977 2.60165 5.31416V3.78718C3.49756 3.47071 4.03498 2.55542 3.87429 1.6197C3.7136 0.683973 2.90154 0 1.95129 0C1.00103 0 0.188972 0.683973 0.0282816 1.6197C-0.132409 2.55542 0.405006 3.47071 1.30092 3.78718V9.21282C0.405006 9.52928 -0.132409 10.4446 0.0282816 11.3803C0.188972 12.316 1.00103 13 1.95129 13C2.90154 13 3.7136 12.316 3.87429 11.3803C4.03498 10.4446 3.49756 9.52928 2.60165 9.21282V7.14978C2.60165 6.79091 2.89283 6.5 3.25202 6.5H7.15422C8.23179 6.5 9.10533 5.62725 9.10533 4.55067V3.78718C9.99787 3.46849 10.5321 2.55504 10.3717 1.62172C10.2113 0.68841 9.40278 0.00525655 8.45496 0.00222687Z" fill="#D9DAE6"/>
</svg>
