<svg width="20" height="19" viewBox="0 0 20 19" fill="none" xmlns="http://www.w3.org/2000/svg">
<path d="M16.4103 11.3335C16.4103 11.2908 16.4103 11.2267 16.4103 11.1839C16.4103 10.7139 16.3675 10.2224 16.3034 9.75232L17.7991 9.21813L19.5726 10.2224L20 9.47454L17.8846 8.27796L16.1111 8.89762C15.6197 7.01728 14.5085 5.41471 13.0342 4.47454L13.3974 3.10702C14.0812 3.08566 14.6795 2.63694 14.8504 1.95318C14.9573 1.54719 14.8932 1.14121 14.7009 0.777963C14.4872 0.414715 14.1667 0.158305 13.7607 0.0514673C13.3547 -0.0553703 12.9487 0.0087323 12.5855 0.20104C12.2222 0.414715 11.9658 0.735228 11.859 1.14121C11.7521 1.54719 11.8162 1.95318 12.0085 2.31642C12.1368 2.55147 12.3291 2.72241 12.5427 2.87198L12.265 4.06856C10.8333 3.42754 9.2094 3.42754 7.77778 4.06856L7.45726 2.89335C7.69231 2.76514 7.86325 2.57283 7.99145 2.33779C8.20513 1.97454 8.24786 1.56856 8.14102 1.16258C8.03419 0.756595 7.77778 0.436083 7.41453 0.222407C7.05128 0.00873228 6.6453 -0.0340027 6.23932 0.0728349C5.83333 0.179672 5.51282 0.436083 5.29914 0.79933C5.08547 1.16258 5.04273 1.56856 5.14957 1.97454C5.32051 2.63694 5.9188 3.10702 6.60256 3.12839L7.00855 4.49591C5.53419 5.43608 4.42308 7.03865 3.93162 8.91899L2.11538 8.27796L0 9.47454L0.42735 10.2224L2.20085 9.21813L3.76068 9.75232C3.69658 10.2224 3.65385 10.6925 3.65385 11.1626C3.65385 11.2053 3.65385 11.2694 3.65385 11.3122H1.88034L0.0641026 12.7224L0.598291 13.4062L2.17949 12.1882H3.69658C3.76068 12.7224 3.86752 13.2352 4.01709 13.748L2.24359 14.1968L0.811966 16.2908L1.51709 16.7609L2.73504 14.9446L4.2735 14.56C5.34188 17.1241 7.58547 18.7694 10 18.7694C12.4145 18.7694 14.6368 17.1241 15.7265 14.56L17.2222 14.9446L18.4402 16.7609L19.1453 16.2908L17.735 14.1968L16.0043 13.7694C16.1538 13.2566 16.2607 12.7438 16.3248 12.2096H17.7778L19.359 13.4275L19.8932 12.7438L18.1197 11.3335H16.4103ZM4.48718 11.1839C4.48718 10.2651 4.63675 9.36771 4.9359 8.51301H9.59402V17.8933C6.7094 17.6369 4.48718 14.731 4.48718 11.1839ZM10.4487 17.8933V8.51301H15.1068C15.406 9.36771 15.5556 10.2651 15.5556 11.1839C15.5769 14.731 13.3333 17.6369 10.4487 17.8933Z" fill="#0278D5"/>
</svg>
