<svg width="16" height="12" viewBox="0 0 16 12" fill="none" xmlns="http://www.w3.org/2000/svg">
<path d="M15.0134 7.69507C15.0134 8.50224 14.3497 9.16592 13.5425 9.16592H2.54702C1.73985 9.16592 1.07617 8.50224 1.07617 7.69507V1.47085C1.07617 0.663677 1.73985 0 2.54702 0H13.5425C14.3497 0 15.0134 0.663677 15.0134 1.47085V7.69507ZM13.7399 7.62332V1.47085C13.7399 1.29148 13.6143 1.16592 13.4349 1.16592H2.56496C2.38559 1.16592 2.26003 1.30942 2.26003 1.47085V7.62332C2.26003 7.80269 2.40353 7.92825 2.56496 7.92825H13.4349C13.6143 7.94619 13.7399 7.80269 13.7399 7.62332Z" fill="#B0B1C3"/>
<path d="M16 10.2063C16 10.6547 15.6233 11.0314 15.1749 11.0314H0.825112C0.376682 11.0314 0 10.6547 0 10.2063V9.59641H16V10.2063Z" fill="#B0B1C3"/>
<path d="M5.27336 4.60986L6.45721 5.79372L5.88322 6.36771L4.14331 4.64574L5.84735 2.76233L6.45721 3.30045L5.27336 4.60986Z" fill="#B0B1C3"/>
<path d="M10.7262 4.50224L9.5603 3.33632L10.1343 2.76233L11.8563 4.4843L10.1522 6.36771L9.5603 5.81166L10.7262 4.50224Z" fill="#B0B1C3"/>
<path d="M7.67695 6.52914L6.92358 6.24214L8.34063 2.58295L9.09399 2.88788L7.67695 6.52914Z" fill="#B0B1C3"/>
</svg>
