<svg width="14" height="14" viewBox="0 0 14 14" fill="none" xmlns="http://www.w3.org/2000/svg">
<path d="M0.794117 14C0.590885 14 0.387653 13.9224 0.232582 13.7674C-0.0775275 13.4573 -0.0775275 12.9544 0.232582 12.6443L12.6443 0.232582C12.9545 -0.0775274 13.4573 -0.0775274 13.7674 0.232582C14.0775 0.542707 14.0775 1.04554 13.7674 1.35568L1.35564 13.7674C1.20058 13.9224 0.997349 14 0.794102 14L0.794117 14Z" fill="currentColor"/>
<path d="M13.2059 14C13.0027 14 12.7994 13.9225 12.6444 13.7674L0.232582 1.35567C-0.0775275 1.04556 -0.0775275 0.542707 0.232582 0.232582C0.542739 -0.0775274 1.04557 -0.0775274 1.35568 0.232582L13.7674 12.6443C14.0775 12.9544 14.0775 13.4573 13.7674 13.7674C13.6124 13.9225 13.4091 14 13.2059 14H13.2059Z" fill="currentColor"/>
</svg>
