<svg width="20" height="17" viewBox="0 0 20 17" fill="none" xmlns="http://www.w3.org/2000/svg">
<path d="M13.0847 10.9683L10.3815 8.26515C10.1709 8.05354 9.82815 8.05354 9.61754 8.26515L6.91438 10.9683C6.70278 11.1799 6.70278 11.5217 6.91438 11.7323C7.01968 11.8376 7.15777 11.8902 7.29685 11.8902C7.43494 11.8902 7.57402 11.8376 7.67933 11.7323L9.45958 9.95201V16.0796C9.45958 16.3776 9.70198 16.62 10 16.62C10.298 16.62 10.5404 16.3776 10.5404 16.0796V9.95201L12.3207 11.7323C12.426 11.8376 12.5641 11.8902 12.7032 11.8902C12.8413 11.8902 12.9803 11.8376 13.0856 11.7323C13.2963 11.5217 13.2963 11.1789 13.0847 10.9683Z" fill="#0278D5"/>
<path d="M15.9239 5.43413C15.6636 2.3942 13.1055 0 10 0C6.72164 0 4.05424 2.66739 4.05424 5.94576C4.05424 6.21697 4.07411 6.48917 4.11285 6.76137C4.04828 6.75839 3.98371 6.75641 3.91913 6.75641C1.75839 6.75641 0 8.5148 0 10.6755C0 12.8363 1.75839 14.5947 3.91913 14.5947H7.29783C7.59686 14.5947 7.83827 14.3523 7.83827 14.0542C7.83827 13.7562 7.59587 13.5138 7.29783 13.5138H3.91913C2.35446 13.5138 1.08087 12.2412 1.08087 10.6755C1.08087 9.10987 2.35347 7.83727 3.91913 7.83727C4.16253 7.83727 4.41188 7.87204 4.66124 7.9396C4.849 7.99026 5.04967 7.93662 5.18677 7.79754C5.32386 7.65945 5.37552 7.45778 5.32287 7.27002C5.19769 6.82893 5.13511 6.38287 5.13511 5.94476C5.13511 3.26247 7.3177 1.07987 10 1.07987C12.6823 1.07987 14.8649 3.26247 14.8649 5.94476C14.8649 6.24379 15.1073 6.4852 15.4053 6.4852C17.3425 6.4852 18.9191 8.06179 18.9191 9.99901C18.9191 11.9362 17.3435 13.5128 15.4053 13.5128H12.7022C12.4031 13.5128 12.1617 13.7552 12.1617 14.0532C12.1617 14.3523 12.4041 14.5937 12.7022 14.5937H15.4053C17.9386 14.5937 20 12.5323 20 9.99901C20 7.64157 18.2148 5.69243 15.9239 5.43413Z" fill="#0278D5"/>
</svg>
