<svg width="21" height="35" viewBox="0 0 21 35" fill="none" xmlns="http://www.w3.org/2000/svg">
<path opacity="0.4" fill-rule="evenodd" clip-rule="evenodd" d="M19 0C19.6755 0 20.3427 0.0324661 21 0.0957966V34.9042C20.3427 34.9675 19.6755 35 19 35C8.50659 35 0 27.165 0 17.5C0 7.83502 8.50659 0 19 0ZM7.29289 16.7931L13.6569 10.4291C14.0474 10.0386 14.6805 10.0386 15.0711 10.4291C15.4616 10.8196 15.4616 11.4528 15.0711 11.8433L10.4142 16.5002H20.5V18.5002H10.4142L15.0711 23.157C15.4616 23.5476 15.4616 24.1807 15.0711 24.5713C14.6805 24.9618 14.0474 24.9618 13.6569 24.5713L7.29289 18.2073C6.90237 17.8168 6.90237 17.1836 7.29289 16.7931Z" fill="#D9DAE6"/>
</svg>
