<svg width="18" height="18" viewBox="0 0 18 18" fill="none" xmlns="http://www.w3.org/2000/svg">
<path d="M2.6752 2.67422V2.37422C2.50951 2.37422 2.3752 2.50853 2.3752 2.67422H2.6752ZM2.6752 7.87227H2.3752C2.3752 8.03796 2.50951 8.17228 2.6752 8.17228V7.87227ZM6.21665 2.67422H6.51665C6.51665 2.50853 6.38234 2.37422 6.21665 2.37422V2.67422ZM6.21665 7.87227V8.17228C6.38234 8.17228 6.51665 8.03796 6.51665 7.87227H6.21665ZM2.6752 10.9574V10.6574C2.50951 10.6574 2.3752 10.7917 2.3752 10.9574H2.6752ZM2.6752 15.3272H2.3752C2.3752 15.4929 2.50951 15.6272 2.6752 15.6272V15.3272ZM9.52982 10.9574H9.82982C9.82982 10.7917 9.69551 10.6574 9.52982 10.6574V10.9574ZM9.52982 15.3272V15.6272C9.69551 15.6272 9.82982 15.4929 9.82982 15.3272H9.52982ZM9.30131 7.87228H9.00131C9.00131 8.03796 9.13563 8.17228 9.30131 8.17228V7.87228ZM9.30131 2.67422V2.37422C9.13563 2.37422 9.00131 2.50853 9.00131 2.67422H9.30131ZM15.3277 7.87228V8.17228C15.4933 8.17228 15.6277 8.03796 15.6277 7.87228H15.3277ZM15.3277 2.67422H15.6277C15.6277 2.50853 15.4933 2.37422 15.3277 2.37422V2.67422ZM12.1025 10.4453L11.8904 10.2332L11.8904 10.2332L12.1025 10.4453ZM12.6146 10.9574V10.6574C12.4489 10.6574 12.3146 10.7917 12.3146 10.9574H12.6146ZM12.6146 15.3272H12.3146C12.3146 15.4929 12.4489 15.6272 12.6146 15.6272V15.3272ZM15.3278 10.9574H15.6278C15.6278 10.7917 15.4935 10.6574 15.3278 10.6574V10.9574ZM15.3278 15.3272V15.6272C15.4935 15.6272 15.6278 15.4929 15.6278 15.3272H15.3278ZM2.3752 2.37422V1.77422C2.04382 1.77422 1.7752 2.04285 1.7752 2.37422H2.3752ZM2.3752 8.17228V2.37422H1.7752V8.17228H2.3752ZM2.3752 8.17228H1.7752C1.7752 8.50365 2.04382 8.77228 2.3752 8.77228V8.17228ZM6.51665 8.17228H2.3752V8.77228H6.51665V8.17228ZM6.51665 8.17228V8.77228C6.84803 8.77228 7.11666 8.50365 7.11666 8.17228H6.51665ZM6.51665 2.37422V8.17228H7.11666V2.37422H6.51665ZM6.51665 2.37422H7.11666C7.11666 2.04285 6.84803 1.77422 6.51665 1.77422V2.37422ZM2.3752 2.37422H6.51665V1.77422H2.3752V2.37422ZM2.3752 2.67422V7.87227H2.9752V2.67422H2.3752ZM6.21665 2.37422H2.6752V2.97422H6.21665V2.37422ZM6.51665 7.87227V2.67422H5.91665V7.87227H6.51665ZM2.6752 8.17228H6.21665V7.57227H2.6752V8.17228ZM2.3752 10.6574V10.0574C2.04382 10.0574 1.7752 10.3261 1.7752 10.6574H2.3752ZM2.3752 15.6272V10.6574H1.7752V15.6272H2.3752ZM2.3752 15.6272V15.6272H1.7752C1.7752 15.9586 2.04383 16.2272 2.3752 16.2272V15.6272ZM9.82982 15.6272H2.3752V16.2272H9.82982V15.6272ZM9.82982 15.6272L9.82982 15.6272V16.2272C10.1612 16.2272 10.4298 15.9586 10.4298 15.6272H9.82982ZM9.82982 10.6574V15.6272H10.4298V10.6574H9.82982ZM9.82982 10.6574H9.82982H10.4298C10.4298 10.3261 10.1612 10.0574 9.82982 10.0574V10.6574ZM2.3752 10.6574H9.82982V10.0574H2.3752V10.6574ZM2.3752 10.9574V15.3272H2.9752V10.9574H2.3752ZM9.52982 10.6574H2.6752V11.2574H9.52982V10.6574ZM9.82982 15.3272V10.9574H9.22982V15.3272H9.82982ZM2.6752 15.6272H9.52982V15.0272H2.6752V15.6272ZM9.00131 1.77422C8.66994 1.77422 8.40131 2.04285 8.40131 2.37422H9.00131V1.77422ZM15.6276 1.77422H9.00131V2.37422H15.6276V1.77422ZM16.2277 2.37422C16.2277 2.04285 15.959 1.77422 15.6276 1.77422V2.37422H15.6277H16.2277ZM16.2277 8.17228V2.37422H15.6277V8.17228H16.2277ZM15.6276 8.77228C15.959 8.77228 16.2277 8.50365 16.2277 8.17228H15.6277H15.6276V8.77228ZM9.00131 8.77228H15.6276V8.17228H9.00131V8.77228ZM8.40131 8.17228C8.40131 8.50365 8.66994 8.77228 9.00131 8.77228V8.17228H8.40131ZM8.40131 2.37422V8.17228H9.00131V2.37422H8.40131ZM9.60132 7.87228V2.67422H9.00131V7.87228H9.60132ZM15.3277 7.57228H9.30131V8.17228H15.3277V7.57228ZM15.0276 2.67422V7.87228H15.6277V2.67422H15.0276ZM9.30131 2.97422H15.3277V2.37422H9.30131V2.97422ZM12.3146 10.6574L12.3146 10.6574V10.0574C12.1555 10.0574 12.0029 10.1206 11.8904 10.2332L12.3146 10.6574ZM12.3146 10.6574L12.3146 10.6574L11.8904 10.2332C11.7778 10.3457 11.7146 10.4983 11.7146 10.6574H12.3146ZM12.3146 15.6272V10.6574H11.7146V15.6272H12.3146ZM12.3146 15.6272V15.6272H11.7146C11.7146 15.9586 11.9832 16.2272 12.3146 16.2272V15.6272ZM15.6278 15.6272H12.3146V16.2272H15.6278V15.6272ZM15.6278 15.6272V15.6272V16.2272C15.9592 16.2272 16.2278 15.9586 16.2278 15.6272H15.6278ZM15.6278 10.6574V15.6272H16.2278V10.6574H15.6278ZM15.6278 10.6574H16.2278C16.2278 10.3261 15.9592 10.0574 15.6278 10.0574V10.6574ZM12.3146 10.6574H15.6278V10.0574H12.3146V10.6574ZM12.3146 10.9574V15.3272H12.9146V10.9574H12.3146ZM15.3278 10.6574H12.6146V11.2574H15.3278V10.6574ZM15.6278 15.3272V10.9574H15.0278V15.3272H15.6278ZM12.6146 15.6272H15.3278V15.0272H12.6146V15.6272Z" fill="white"/>
</svg>
