<svg width="180" height="379" viewBox="0 0 180 379" fill="none" xmlns="http://www.w3.org/2000/svg">
<g clip-path="url(#clip0)">
<path fill-rule="evenodd" clip-rule="evenodd" d="M293.188 195.844C293.188 223.022 287.242 249.351 277.05 273.132L206.557 203.488C215.05 189.899 219.297 173.761 219.297 156.775C220.146 108.364 180.228 68.4457 130.967 68.4457C113.132 68.4457 96.9944 73.5416 83.4053 82.0348L18.0076 17.4864C42.6379 6.44525 68.9669 0.5 97.8438 0.5C205.707 0.5 293.188 87.98 293.188 195.844ZM-9.17065 32.7742L61.323 103.268C49.4325 118.556 42.6379 137.241 42.6379 157.624C42.6379 206.885 82.556 246.803 131.817 246.803C152.2 246.803 170.885 240.008 186.173 228.118L261.763 303.707C226.091 356.365 166.639 391.188 97.8438 391.188C-10.02 391.188 -97.5 303.707 -97.5 195.844C-97.5 127.049 -62.6779 67.5963 -9.17065 32.7742ZM131.817 212.83C164.94 212.83 191.269 186.501 191.269 153.378C191.269 120.254 164.94 93.9253 131.817 93.9253C98.6931 93.9253 72.3641 120.254 72.3641 153.378C72.3641 186.501 98.6931 212.83 131.817 212.83Z" fill="url(#paint0_linear)"/>
</g>
<defs>
<linearGradient id="paint0_linear" x1="-20.2449" y1="13.0487" x2="223.334" y2="390.097" gradientUnits="userSpaceOnUse">
<stop stop-color="#73DFE7"/>
<stop offset="1" stop-color="#0095F7"/>
</linearGradient>
<clipPath id="clip0">
<rect width="390.688" height="390.688" fill="white" transform="translate(-97.5 0.5)"/>
</clipPath>
</defs>
</svg>
