<svg xmlns="http://www.w3.org/2000/svg" id="Layer_1" data-name="Layer 1" viewBox="0 0 86.62 27">
    <defs>
        <style>.cls-1{fill:#22222A}</style>
    </defs>
    <g id="Landing">
        <g id="logos">
            <g id="drone-logo-back-with-text">
                <g id="Group-4">
                    <path id="DRONE" class="cls-1" d="M29.07 6.52h4.35A4.93 4.93 0 0137 7.69a5.09 5.09 0 011.19 3.74A4.91 4.91 0 0137 15.06a4.89 4.89 0 01-3.53 1.17h-4.4zm4 7.54a3 3 0 001.22-.22 1.31 1.31 0 00.71-.79 4.32 4.32 0 00.24-1.62A4.65 4.65 0 0035 9.76a1.58 1.58 0 00-.69-.85 2.71 2.71 0 00-1.24-.24h-1.16v5.39zm7.82-7.54h5.07a3.47 3.47 0 012.6.93 3.52 3.52 0 01.85 2.55 3.19 3.19 0 01-.48 1.73 3.32 3.32 0 01-1.3 1.16 1.15 1.15 0 01.3.32 3.74 3.74 0 01.26.53l1.12 2.55h-3l-1-2.34a1 1 0 00-.29-.39.88.88 0 00-.48-.11h-.8v2.84h-2.82V6.52zm4.32 4.7a1.31 1.31 0 001-.32 1.17 1.17 0 00.34-.93c0-.85-.39-1.27-1.22-1.27h-1.65v2.55h1.51zm11.38 5.17a5.23 5.23 0 01-3.71-1.19 5.09 5.09 0 01-1.25-3.77 5.13 5.13 0 011.25-3.84 5.14 5.14 0 013.71-1.2 5.17 5.17 0 013.72 1.2 5.13 5.13 0 011.24 3.84 5.09 5.09 0 01-1.24 3.77 5.24 5.24 0 01-3.74 1.19zm0-2.41a1.91 1.91 0 001.57-.61 3.19 3.19 0 00.47-2 3.25 3.25 0 00-.47-2 2.39 2.39 0 00-3.19 0 3.38 3.38 0 00-.47 2 3.32 3.32 0 00.47 2 2 2 0 001.6.63zm7.69-7.46h2.42l3.66 5.15V6.52h2.84v9.71h-2.46l-3.64-5.12v5.12h-2.84zm12 0h7.32V8.7h-4.54v1.59h4v2.2h-4v1.59h4.54v2.18h-7.37z" />
                    <g id="Group-3">
                        <path id="Combined-Shape" d="M4.43 2.47l-.11.1 3.85 3.8a5.68 5.68 0 00-.85 3.05 5.27 5.27 0 005.49 5.43 5.7 5.7 0 003.08-.85l3.87 3.85A10.89 10.89 0 0111 22.12 10.84 10.84 0 010 11.25a10.63 10.63 0 014.43-8.78zM6.58 1a11.17 11.17 0 014.69-1A10.82 10.82 0 0122.2 10.87a11 11 0 01-1 4.7l-3.45-3.45a5.71 5.71 0 00.85-3 5.28 5.28 0 00-5.5-5.49 5.61 5.61 0 00-3 .85zm6.58 11.25A3.18 3.18 0 019.87 9a3.18 3.18 0 013.29-3.3A3.21 3.21 0 0116.44 9a3.16 3.16 0 01-3.28 3.28z" fill="#00abe4" />
                    </g>
                </g>
            </g>
        </g>
    </g>
    <path class="cls-1" d="M44.32 24.61a1.85 1.85 0 01-1.3.45 1.79 1.79 0 01-1.62-1v.88h-.43v-7.09h.51v3a1.85 1.85 0 011.64-1 1.82 1.82 0 011.33.51 2.81 2.81 0 01.77 2.06 3.19 3.19 0 01-.9 2.19zm-.27-3.79A1.4 1.4 0 0043 20.4a1.53 1.53 0 00-1 .37 2.18 2.18 0 00-.61 1.72 2.2 2.2 0 00.64 1.7 1.32 1.32 0 001 .4 1.46 1.46 0 001-.35 2.27 2.27 0 00.64-1.75 2.35 2.35 0 00-.62-1.67z" />
    <path class="cls-1" d="M47.26 26a1.36 1.36 0 01-1.32 1 2.37 2.37 0 01-.61-.08v-.42a5.37 5.37 0 00.61.05 1 1 0 00.9-.72l.32-.79-2-5h.53l1.71 4.36 1.6-4.35h.53zM54.61 24.93v-3.15c0-.59-.19-1-.85-1s-1.06.8-1.06 1.41v2.7h-1.22v-7.04h1.22v2.52a1.74 1.74 0 011.41-.66 1.67 1.67 0 011.72 1.83v3.39zM60.52 25a.82.82 0 01-.87-.72 1.75 1.75 0 01-1.54.77 1.66 1.66 0 01-1.86-1.59A1.62 1.62 0 0158 21.88l1.51-.1v-.32c0-.48-.16-.8-.88-.8-.55 0-.9.27-.92.72h-1.2c.08-1.14 1-1.67 2.12-1.67a1.81 1.81 0 011.91 1 2.61 2.61 0 01.16 1v1.88c0 .24.08.32.3.32a.43.43 0 00.15 0v.9a1 1 0 01-.63.19zm-1-2.33l-1.3.1a.73.73 0 00-.74.67.66.66 0 00.71.63 1.15 1.15 0 001.3-1.16v-.24zM64.16 20.93a1.28 1.28 0 00-1.33 1.43v2.57h-1.24v-5.09h1l.11.77a1.44 1.44 0 011.43-.82 2.17 2.17 0 01.37 0V21a1.44 1.44 0 00-.34-.07zM68 24.93V21.8c0-.61-.19-.95-.85-.95a.94.94 0 00-.88.63 3.46 3.46 0 00-.16 1.36v2.09h-1.24v-5.09h1l.08.66a1.76 1.76 0 013.23 1v3.39zM74.34 22.76h-3.42a1.4 1.4 0 00.37 1 1.15 1.15 0 00.75.32 1 1 0 00.74-.24 1 1 0 00.24-.42h1.16a2.14 2.14 0 01-.42.95 2.39 2.39 0 01-3.34.08 2.76 2.76 0 01-.8-2 2.81 2.81 0 01.74-2 2.17 2.17 0 011.64-.72 2.12 2.12 0 011.86 1 3 3 0 01.45 1.77c.06-.09.03.15.03.26zM72.83 21a1 1 0 00-.77-.29 1 1 0 00-.85.4 1.16 1.16 0 00-.26.79h2.2a1.45 1.45 0 00-.32-.9zM78.45 24.48a2.43 2.43 0 01-1.75.58 2.34 2.34 0 01-1.64-.58 1.74 1.74 0 01-.53-1.19h1.14a.86.86 0 00.26.61 1.13 1.13 0 00.77.24c.43 0 1-.08 1-.64a.53.53 0 00-.51-.53c-.45-.08-1-.11-1.4-.19a1.43 1.43 0 01-1.17-1.35 1.39 1.39 0 01.53-1.14 2.32 2.32 0 011.54-.5 2.07 2.07 0 011.59.61 1.63 1.63 0 01.45 1.06h-1.12a.64.64 0 00-.22-.48 1 1 0 00-.66-.24 1.23 1.23 0 00-.53.08.58.58 0 00-.4.53c0 .37.32.48.59.5l1.08.16a1.5 1.5 0 011.41 1.44 1.44 1.44 0 01-.43 1.03zM83 24.48a2.43 2.43 0 01-1.75.58 2.34 2.34 0 01-1.64-.58 1.74 1.74 0 01-.53-1.19h1.14a.82.82 0 00.26.61 1.13 1.13 0 00.77.24c.43 0 1-.08 1-.64a.53.53 0 00-.51-.53c-.45-.08-.95-.11-1.4-.19a1.43 1.43 0 01-1.17-1.35 1.39 1.39 0 01.53-1.14 2.32 2.32 0 011.54-.5 2.07 2.07 0 011.59.61 1.68 1.68 0 01.45 1.06h-1.09A.67.67 0 0082 21a1 1 0 00-.66-.24 1.2 1.2 0 00-.53.08.58.58 0 00-.4.53c0 .37.32.48.58.5l1.09.16a1.5 1.5 0 011.41 1.44 1.37 1.37 0 01-.49 1.01zM85.19 6.68v.93h-.13v-.93h-.32v-.13h.77v.13zM86.49 7.61v-.9l-.32.88h-.1l-.32-.88v.9h-.14V6.55h.19l.32.88.32-.88h.18v1.06z" />
</svg>