<svg width="102" height="89" viewBox="0 0 102 89" fill="none" xmlns="http://www.w3.org/2000/svg">
<path opacity="0.8" d="M40 9C62.0914 9 80 26.9086 80 49C80 71.0914 62.0914 89 40 89C17.9086 89 0 71.0914 0 49C0 26.9086 17.9086 9 40 9Z" fill="url(#paint0_linear)"/>
<path d="M80 47.5C72.5 53.5 34 73 0 47.5V52.5L0.5 55.5L1 58.5L2 61.5C36 76 49.5 72 77 62L78 61.5L78.5 60L79 58L79.5 56L79.75 53.75L80 52V50V47.5Z" fill="#f8f9fa"/>
<path d="M40.3 78.8C52.0637 78.8 61.6 71.9052 61.6 63.4C61.6 54.8948 52.0637 48 40.3 48C28.5363 48 19 54.8948 19 63.4C19 71.9052 28.5363 78.8 40.3 78.8Z" fill="#f8f9fa"/>
<path d="M40.3004 73.0031C47.1487 73.0031 52.7004 69.0185 52.7004 64.1031C52.7004 59.1878 47.1487 55.2031 40.3004 55.2031C33.4521 55.2031 27.9004 59.1878 27.9004 64.1031C27.9004 69.0185 33.4521 73.0031 40.3004 73.0031Z" fill="url(#paint1_linear)"/>
<path fill-rule="evenodd" clip-rule="evenodd" d="M57.9619 40L57.9101 39.998L53.6955 39.7071C53.3937 39.6872 53.1358 39.4869 53.0392 39.199C52.9426 38.9131 53.0282 38.5973 53.2573 38.3991L56.4023 35.6595L53.9873 35.4921C53.5759 35.4632 53.2662 35.1066 53.2941 34.6951C53.323 34.2837 53.6895 33.9739 54.0908 34.0017L58.3045 34.2936C58.6063 34.3136 58.8652 34.5138 58.9608 34.8007C59.0574 35.0876 58.9718 35.4034 58.7437 35.6017L55.5976 38.3413L58.0127 38.5077C58.424 38.5356 58.7347 38.8932 58.7059 39.3046C58.679 39.6981 58.3513 40 57.9619 40Z" fill="#6B6D85"/>
<path opacity="0.6" fill-rule="evenodd" clip-rule="evenodd" d="M64.6545 30.4262C64.4577 30.0542 64.5255 29.6119 64.8234 29.3041L71.7314 22.1791L65.1769 22.5317C64.5811 22.5715 64.0375 22.1363 64.0019 21.5747C63.9663 21.0132 64.4332 20.5311 65.0458 20.4975L74.2805 20.0001C74.7419 19.994 75.151 20.2019 75.3455 20.5729C75.5423 20.9439 75.4745 21.3862 75.1766 21.694L68.2686 28.819L74.8231 28.4664C75.4245 28.4307 75.9625 28.8618 75.9981 29.4233C76.0337 29.9849 75.5668 30.468 74.9542 30.5006L65.7195 30.998L65.6539 31C65.2292 31 64.8401 30.7778 64.6545 30.4262Z" fill="#6B6D85"/>
<path opacity="0.3" fill-rule="evenodd" clip-rule="evenodd" d="M83.0908 18.9567C82.7628 18.2804 82.8758 17.4762 83.3724 16.9166L94.8857 3.96202L83.9616 4.60317C82.9685 4.67544 82.0625 3.88419 82.0032 2.86317C81.9439 1.84215 82.7221 0.965668 83.743 0.904518L99.1343 0.000238518C99.9032 -0.0108797 100.585 0.367139 100.909 1.04164C101.237 1.71614 101.124 2.52036 100.628 3.07998L89.1143 16.0345L100.038 15.3934C101.041 15.3285 101.938 16.1123 101.997 17.1334C102.056 18.1544 101.278 19.0327 100.257 19.092L84.8658 19.9963L84.7564 20C84.0487 20 83.4002 19.596 83.0908 18.9567Z" fill="#6B6D85"/>
<defs>
<linearGradient id="paint0_linear" x1="12.5" y1="21.5" x2="70" y2="77.5" gradientUnits="userSpaceOnUse">
    <stop stop-color="#D9DAE5"/>
    <stop offset="1" stop-color="#9293AB"/>
</linearGradient>
<linearGradient id="paint1_linear" x1="32.3754" y1="56.2101" x2="47.6364" y2="71.4711" gradientUnits="userSpaceOnUse">
    <stop stop-color="#D9DAE5"/>
    <stop offset="1" stop-color="#9293AB"/>
</linearGradient>
</defs>
</svg>
