<svg width="101" height="80" viewBox="0 0 101 80" fill="none" xmlns="http://www.w3.org/2000/svg">
<path opacity="0.8" d="M40 0C62.0914 0 80 17.9086 80 40C80 62.0914 62.0914 80 40 80C17.9086 80 0 62.0914 0 40C0 17.9086 17.9086 0 40 0Z" fill="url(#paint0_linear)"/>
<path d="M80 38.5C72.5 44.5 34 64 0 38.5V43.5L0.5 46.5L1 49.5L2 52.5C36 67 49.5 63 77 53L78 52.5L78.5 51L79 49L79.5 47L79.75 44.75L80 43V41V38.5Z" fill="#f8f9fa"/>
<path d="M40.3 69.8C52.0637 69.8 61.6 62.9052 61.6 54.4C61.6 45.8948 52.0637 39 40.3 39C28.5363 39 19 45.8948 19 54.4C19 62.9052 28.5363 69.8 40.3 69.8Z" fill="#f8f9fa"/>
<path d="M40.3004 64.0031C47.1487 64.0031 52.7004 60.0185 52.7004 55.1031C52.7004 50.1878 47.1487 46.2031 40.3004 46.2031C33.4521 46.2031 27.9004 50.1878 27.9004 55.1031C27.9004 60.0185 33.4521 64.0031 40.3004 64.0031Z" fill="url(#paint1_linear)"/>
<path d="M50.9062 23.7969V13.2031L44.9844 23.7969H50.9062ZM49.2188 31C48.7188 31 48.3802 30.9219 48.2031 30.7656C48.026 30.599 47.9375 30.3021 47.9375 29.875C47.9375 29.5 48.026 29.2292 48.2031 29.0625C48.3906 28.8854 48.6875 28.7969 49.0938 28.7969H50.9062V26.1719H43.6094C43.349 26.1719 43.1458 26.0885 43 25.9219C42.8542 25.7552 42.7812 25.5156 42.7812 25.2031V24.125C42.7812 23.7083 42.9323 23.2708 43.2344 22.8125C43.2865 22.7292 43.3281 22.6615 43.3594 22.6094L49.9531 11.4219C50.099 11.1615 50.2188 10.9948 50.3125 10.9219C50.4062 10.849 50.5312 10.8125 50.6875 10.8125C50.75 10.8125 50.8594 10.8229 51.0156 10.8438C51.0573 10.8542 51.099 10.8646 51.1406 10.875L52.7344 11.125C52.8802 11.1458 52.9948 11.2292 53.0781 11.375C53.1719 11.5104 53.2188 11.6927 53.2188 11.9219V23.7969H54.0156C54.2448 23.7969 54.4219 23.7083 54.5469 23.5312C54.6719 23.3438 54.8125 23.25 54.9688 23.25C55.1771 23.25 55.3542 23.3281 55.5 23.4844C55.6458 23.6406 55.7188 23.8333 55.7188 24.0625C55.7188 24.1562 55.7135 24.2448 55.7031 24.3281C55.6927 24.401 55.6719 24.4792 55.6406 24.5625L55.5156 25.2031C55.4427 25.5781 55.3333 25.8333 55.1875 25.9688C55.0521 26.1042 54.8333 26.1719 54.5312 26.1719H53.2188V28.7969H53.7656C54.4323 28.7969 54.8906 28.8802 55.1406 29.0469C55.3906 29.2031 55.5156 29.4792 55.5156 29.875C55.5156 30.25 55.4115 30.5312 55.2031 30.7188C54.9948 30.9062 54.6823 31 54.2656 31H49.2188ZM70.4125 13.0156C69.2146 13.0156 68.2823 13.724 67.6156 15.1406C66.949 16.5573 66.6156 18.5573 66.6156 21.1406C66.6156 23.7344 66.949 25.7448 67.6156 27.1719C68.2823 28.5885 69.2146 29.2969 70.4125 29.2969C71.6208 29.2969 72.5583 28.5885 73.225 27.1719C73.8917 25.7448 74.225 23.7344 74.225 21.1406C74.225 18.5573 73.8917 16.5573 73.225 15.1406C72.5583 13.724 71.6208 13.0156 70.4125 13.0156ZM70.4125 31.5156C68.4542 31.5156 66.8969 30.5938 65.7406 28.75C64.5948 26.8958 64.0219 24.3594 64.0219 21.1406C64.0219 17.9323 64.5948 15.4062 65.7406 13.5625C66.8969 11.7083 68.4542 10.7812 70.4125 10.7812C72.3708 10.7812 73.9281 11.7083 75.0844 13.5625C76.2406 15.4167 76.8188 17.9427 76.8188 21.1406C76.8188 24.3385 76.2406 26.8698 75.0844 28.7344C73.9281 30.5885 72.3708 31.5156 70.4125 31.5156ZM92.5438 23.7969V13.2031L86.6219 23.7969H92.5438ZM90.8563 31C90.3563 31 90.0177 30.9219 89.8406 30.7656C89.6635 30.599 89.575 30.3021 89.575 29.875C89.575 29.5 89.6635 29.2292 89.8406 29.0625C90.0281 28.8854 90.325 28.7969 90.7313 28.7969H92.5438V26.1719H85.2469C84.9865 26.1719 84.7833 26.0885 84.6375 25.9219C84.4917 25.7552 84.4188 25.5156 84.4188 25.2031V24.125C84.4188 23.7083 84.5698 23.2708 84.8719 22.8125C84.924 22.7292 84.9656 22.6615 84.9969 22.6094L91.5906 11.4219C91.7365 11.1615 91.8563 10.9948 91.95 10.9219C92.0438 10.849 92.1688 10.8125 92.325 10.8125C92.3875 10.8125 92.4969 10.8229 92.6531 10.8438C92.6948 10.8542 92.7365 10.8646 92.7781 10.875L94.3719 11.125C94.5177 11.1458 94.6323 11.2292 94.7156 11.375C94.8094 11.5104 94.8563 11.6927 94.8563 11.9219V23.7969H95.6531C95.8823 23.7969 96.0594 23.7083 96.1844 23.5312C96.3094 23.3438 96.45 23.25 96.6063 23.25C96.8146 23.25 96.9917 23.3281 97.1375 23.4844C97.2833 23.6406 97.3563 23.8333 97.3563 24.0625C97.3563 24.1562 97.351 24.2448 97.3406 24.3281C97.3302 24.401 97.3094 24.4792 97.2781 24.5625L97.1531 25.2031C97.0802 25.5781 96.9708 25.8333 96.825 25.9688C96.6896 26.1042 96.4708 26.1719 96.1688 26.1719H94.8563V28.7969H95.4031C96.0698 28.7969 96.5281 28.8802 96.7781 29.0469C97.0281 29.2031 97.1531 29.4792 97.1531 29.875C97.1531 30.25 97.049 30.5312 96.8406 30.7188C96.6323 30.9062 96.3198 31 95.9031 31H90.8563Z" fill="#6B6D85"/>
<defs>
<linearGradient id="paint0_linear" x1="12.5" y1="12.5" x2="70" y2="68.5" gradientUnits="userSpaceOnUse">
<stop stop-color="#D9DAE5"/>
<stop offset="1" stop-color="#9293AB"/>
</linearGradient>
<linearGradient id="paint1_linear" x1="32.3754" y1="47.2101" x2="47.6364" y2="62.4711" gradientUnits="userSpaceOnUse">
<stop stop-color="#D9DAE5"/>
<stop offset="1" stop-color="#9293AB"/>
</linearGradient>
</defs>
</svg>
