<svg width="16" height="20" viewBox="0 0 16 20" fill="none" xmlns="http://www.w3.org/2000/svg">
<path d="M13.5895 5.93376C13.3511 6.0927 13.2716 6.41059 13.404 6.649C14.0398 7.68211 14.3577 8.87416 14.3577 10.0927C14.3577 13.7748 11.3643 16.7417 7.70867 16.7417C7.68218 16.7417 7.65569 16.7417 7.6292 16.7417L9.27159 15.0728C9.48351 14.8609 9.48351 14.543 9.27159 14.3311C9.05966 14.1192 8.74178 14.1192 8.52986 14.3311L6.14576 16.7152C6.0398 16.8212 5.98682 16.9536 5.98682 17.0861C5.98682 17.2185 6.0398 17.351 6.14576 17.4569L8.52986 19.841C8.63582 19.947 8.76827 20 8.90072 20C9.03317 20 9.16563 19.947 9.27159 19.841C9.48351 19.6291 9.48351 19.3112 9.27159 19.0993L7.97357 17.8013C12.106 17.6689 15.4173 14.2516 15.4173 10.0927C15.4173 8.68873 15.0464 7.31125 14.3047 6.09271C14.1722 5.85429 13.8279 5.77482 13.5895 5.93376Z" fill="#4F5162"/>
<path d="M6.38411 5.66887L8.76821 3.28477C8.87417 3.17881 8.92715 3.04636 8.92715 2.91391C8.92715 2.78146 8.87417 2.64901 8.76821 2.54305L6.38411 0.15894C6.17219 -0.0529801 5.8543 -0.0529801 5.64238 0.15894C5.43046 0.370861 5.43046 0.688742 5.64238 0.900662L7.12583 2.4106C3.15232 2.70199 0 6.03974 0 10.0927C0 11.4437 0.344371 12.7682 1.03311 13.9338C1.13907 14.0927 1.29801 14.1987 1.48344 14.1987C1.56291 14.1987 1.66887 14.1722 1.74834 14.1192C2.01325 13.9868 2.09272 13.6424 1.93378 13.404C1.35099 12.3974 1.0596 11.2583 1.0596 10.0927C1.0596 6.62252 3.70861 3.78808 7.09934 3.4702L5.64238 4.90066C5.43046 5.11258 5.43046 5.43046 5.64238 5.64238C5.74834 5.74834 5.88079 5.80132 6.01324 5.80132C6.14569 5.82781 6.27815 5.77483 6.38411 5.66887Z" fill="#4F5162"/>
</svg>
