<svg width="15" height="16" viewBox="0 0 15 16" fill="none" xmlns="http://www.w3.org/2000/svg">
<path d="M14.3789 2.80185C14.3769 2.79557 14.3752 2.78958 14.3729 2.7833C14.355 2.7348 14.3287 2.69087 14.2952 2.65264C14.2929 2.65007 14.2923 2.64665 14.29 2.64408L12.0332 0.142931C11.9513 0.0519229 11.8338 0 11.7103 0H2.6897C2.56618 0 2.44872 0.0522082 2.36647 0.142931L0.109954 2.64408C0.107645 2.64665 0.107068 2.65036 0.104471 2.65321C0.0715713 2.69144 0.0453091 2.73509 0.0274163 2.7833C0.0251075 2.78958 0.023376 2.79614 0.0213558 2.80242C0.00865766 2.84264 0 2.88458 0 2.9288V15.5721C0 15.8083 0.193647 16 0.432892 16H13.9671C14.2061 16 14.4 15.8083 14.4 15.5721V2.9288C14.4003 2.8843 14.3916 2.84236 14.3789 2.80185ZM5.2351 11.7854H9.16576V12.1936C9.16576 12.3939 9.00097 12.5568 8.79838 12.5568H5.60191C5.3996 12.5568 5.2351 12.3939 5.2351 12.1936V11.7854ZM0.866072 10.9295V7.57106H4.36961V7.9796C4.36961 8.65118 4.92255 9.1978 5.60219 9.1978H8.79867C9.47859 9.1978 10.0318 8.65146 10.0318 7.9796V7.57106H13.5348V10.9292H0.866072V10.9295ZM4.36932 3.35674V3.76499C4.36932 4.43685 4.92227 4.98347 5.60191 4.98347H8.79838C9.4783 4.98347 10.0315 4.43685 10.0315 3.76499V3.35674H13.5345V6.71519H0.866072V3.35674H4.36932ZM9.16605 3.35674V3.76499C9.16605 3.96498 9.00126 4.1276 8.79867 4.1276H5.60191C5.3996 4.1276 5.2351 3.96498 5.2351 3.76499V3.35674H9.16605ZM5.2351 7.57106H9.16576V7.9796C9.16576 8.17931 9.00097 8.34192 8.79838 8.34192H5.60191C5.3996 8.34192 5.2351 8.17959 5.2351 7.9796V7.57106ZM2.88363 0.855589H11.5166L13.0015 2.50086H1.39939L2.88363 0.855589ZM13.5345 15.1441H0.866072V11.7854H4.36961V12.1936C4.36961 12.8658 4.92255 13.4127 5.60219 13.4127H8.79867C9.47859 13.4127 10.0318 12.8658 10.0318 12.1936V11.7851H13.5348V15.1441H13.5345Z" fill="#B0B1C4"/>
</svg>
