<svg width="16" height="15" viewBox="0 0 16 15" fill="none" xmlns="http://www.w3.org/2000/svg">
<path d="M14.6139 2.9365C13.809 1.83655 12.7073 0.988755 11.4378 0.492418C10.1684 -0.00391886 8.7838 -0.128245 7.44625 0.134005C6.10869 0.396254 4.87356 1.03422 3.88553 1.97317C2.89751 2.91212 2.1975 4.11317 1.8675 5.43564L1.006 3.78466C0.973252 3.72266 0.928612 3.66772 0.874631 3.62298C0.82065 3.57824 0.758385 3.54456 0.69139 3.52388C0.624395 3.5032 0.553983 3.49592 0.484174 3.50245C0.414364 3.50898 0.346525 3.5292 0.284529 3.56195C0.222534 3.5947 0.167595 3.63934 0.122851 3.69332C0.0781071 3.7473 0.0444335 3.80957 0.023753 3.87656C0.00307257 3.94356 -0.00420982 4.01397 0.00232172 4.08378C0.00885327 4.15359 0.0290708 4.22143 0.06182 4.28342L1.7208 7.42802V7.44403C1.73977 7.47652 1.76212 7.50692 1.78748 7.53471L1.80082 7.55071C1.83056 7.58029 1.86368 7.60625 1.89951 7.62806L1.92884 7.64407C1.95786 7.65927 1.98822 7.67177 2.01953 7.68141H2.0542C2.09521 7.69169 2.13729 7.69706 2.17956 7.69741C2.21591 7.70115 2.25256 7.70115 2.28891 7.69741H2.32092C2.34932 7.68905 2.37698 7.67835 2.4036 7.6654H2.41961L5.56421 6.00642C5.62725 5.97524 5.68354 5.93196 5.72986 5.87903C5.77618 5.82611 5.81162 5.76457 5.83416 5.69795C5.8567 5.63133 5.86589 5.56092 5.86122 5.49074C5.85654 5.42056 5.83809 5.35199 5.80692 5.28895C5.77575 5.2259 5.73246 5.16961 5.67953 5.12329C5.62661 5.07698 5.56508 5.04154 5.49845 5.019C5.43183 4.99646 5.36142 4.98726 5.29124 4.99194C5.22107 4.99661 5.1525 5.01506 5.08945 5.04623L2.79568 6.25713C2.99662 4.93925 3.62341 3.72336 4.5803 2.79517C5.5372 1.86697 6.7716 1.27749 8.09499 1.11676C9.41838 0.956026 10.758 1.23287 11.9093 1.90502C13.0605 2.57717 13.9602 3.60766 14.4707 4.83913C14.9813 6.07059 15.0748 7.43533 14.7369 8.7249C14.399 10.0145 13.6482 11.158 12.5994 11.9808C11.5505 12.8037 10.2611 13.2606 8.92818 13.2818C7.59523 13.303 6.29198 12.8873 5.21747 12.0983C5.16127 12.0542 5.09679 12.0219 5.02786 12.0032C4.95894 11.9845 4.88696 11.9799 4.8162 11.9896C4.74545 11.9992 4.67735 12.023 4.61596 12.0595C4.55456 12.0959 4.50111 12.1444 4.45878 12.2019C4.41645 12.2594 4.3861 12.3248 4.36952 12.3943C4.35295 12.4637 4.35049 12.5358 4.36229 12.6063C4.3741 12.6767 4.39992 12.744 4.43824 12.8043C4.47656 12.8646 4.52658 12.9165 4.58535 12.9571C5.96645 13.9704 7.66459 14.4559 9.37258 14.3258C11.0806 14.1957 12.6856 13.4586 13.8973 12.2479C15.109 11.0372 15.8474 9.43271 15.9788 7.72482C16.1103 6.01693 15.6261 4.3184 14.6139 2.9365Z" fill="#6B6D85"/>
</svg>
