<svg width="16" height="16" viewBox="0 0 16 16" fill="none" xmlns="http://www.w3.org/2000/svg">
<path d="M7.9976 3.74883C5.63834 3.74883 3.72144 5.66823 3.72144 8.02499C3.72144 10.3818 5.63834 12.3037 7.9976 12.3037C10.3569 12.3037 12.2738 10.3843 12.2738 8.02749C12.2738 5.67072 10.3569 3.74883 7.9976 3.74883ZM6.97042 11.6589V10.4517C6.97042 10.3568 6.91794 10.2718 6.83296 10.2293C5.95574 9.78694 5.40841 8.90222 5.40841 7.92002C5.40841 7.08278 5.80578 6.31552 6.46808 5.83317V7.54514C6.46808 7.6826 6.58054 7.79506 6.718 7.79506H9.2697C9.40716 7.79506 9.51962 7.6826 9.51962 7.54514V5.83317C10.1819 6.31552 10.5793 7.08278 10.5793 7.92002C10.5793 8.89972 10.0345 9.78444 9.15474 10.2293C9.06977 10.2718 9.01728 10.3593 9.01728 10.4517V11.6589C8.68988 11.7513 8.34749 11.8038 7.9901 11.8038C7.63271 11.8038 7.29782 11.7513 6.97042 11.6589ZM9.52462 11.4789V10.6017C10.4918 10.0519 11.0841 9.03967 11.0841 7.92002C11.0841 6.75039 10.4343 5.69572 9.38717 5.16588C9.30969 5.12589 9.21722 5.13089 9.14224 5.17588C9.06727 5.22087 9.02228 5.30084 9.02228 5.38831V7.29522H6.97042V5.38831C6.97042 5.30084 6.92543 5.22087 6.85046 5.17588C6.77548 5.13089 6.68301 5.12589 6.60553 5.16588C5.55836 5.69572 4.90856 6.75039 4.90856 7.92002C4.90856 9.03717 5.50338 10.0519 6.46808 10.6017V11.4789C5.14349 10.8916 4.21628 9.56701 4.21628 8.02749C4.22128 5.94314 5.91575 4.24867 7.9976 4.24867C10.0794 4.24867 11.7739 5.94314 11.7739 8.02499C11.7739 9.56451 10.8492 10.8916 9.52462 11.4789Z" fill="white"/>
<path d="M15.7826 6.66542L14.4555 6.46048C14.293 5.7757 14.0231 5.1234 13.6507 4.52109L14.443 3.43643C14.5155 3.33646 14.5055 3.199 14.418 3.11153L12.8835 1.57451C12.796 1.48704 12.6585 1.47704 12.5586 1.54952L11.4739 2.34427C10.8716 1.97188 10.2218 1.69947 9.53702 1.53702L9.33208 0.209934C9.31209 0.0899719 9.20712 0 9.08466 0H6.91284C6.79038 0 6.68541 0.0899719 6.66542 0.212434L6.46048 1.53952C5.7757 1.70197 5.1234 1.97188 4.52109 2.34427L3.43393 1.54952C3.33396 1.47704 3.1965 1.48704 3.10903 1.57451L1.57451 3.11153C1.48704 3.199 1.47704 3.33646 1.54952 3.43643L2.34177 4.52109C1.96938 5.1234 1.69947 5.7757 1.53702 6.46048L0.209934 6.66542C0.0899719 6.68291 0 6.78788 0 6.91034V9.08216C0 9.20462 0.0899719 9.30959 0.212434 9.32959L1.53952 9.53452C1.70197 10.2193 1.97188 10.8716 2.34427 11.4739L1.54952 12.5611C1.47704 12.661 1.48704 12.7985 1.57451 12.886L3.11153 14.423C3.199 14.5105 3.33646 14.5205 3.43643 14.448L4.52109 13.6532C5.1234 14.0256 5.7757 14.2955 6.46048 14.458L6.66542 15.7851C6.68541 15.9075 6.79038 15.9975 6.91284 15.9975H9.08466C9.20712 15.9975 9.31209 15.9075 9.33208 15.7851L9.53702 14.458C10.2218 14.2955 10.8741 14.0256 11.4764 13.6532L12.5611 14.448C12.661 14.5205 12.7985 14.5105 12.886 14.423L14.423 12.886C14.5105 12.7985 14.5205 12.661 14.448 12.5611L13.6557 11.4764C14.0281 10.8741 14.298 10.2218 14.4605 9.53702L15.7876 9.33208C15.91 9.31209 16 9.20712 16 9.08466V6.91284C15.995 6.78788 15.905 6.68291 15.7826 6.66542ZM15.4952 8.86973L14.2131 9.06717C14.1106 9.08216 14.0281 9.16214 14.0056 9.26211C13.8507 10.0044 13.5583 10.7067 13.1409 11.3465C13.0834 11.4339 13.0859 11.5464 13.1484 11.6314L13.9157 12.681L12.6835 13.9157L11.6339 13.1484C11.5489 13.0859 11.4364 13.0834 11.349 13.1409C10.7092 13.5583 10.0069 13.8507 9.26461 14.0056C9.16214 14.0281 9.08466 14.1081 9.06967 14.2131L8.86973 15.4952H7.12527L6.92784 14.2131C6.91284 14.1106 6.83287 14.0281 6.7329 14.0056C5.99063 13.8507 5.28835 13.5583 4.64855 13.1409C4.56108 13.0834 4.44861 13.0859 4.36364 13.1484L3.31396 13.9157L2.08185 12.681L2.84911 11.6314C2.91159 11.5464 2.91409 11.4339 2.85661 11.3465C2.43924 10.7067 2.14683 10.0044 1.99188 9.26211C1.96938 9.15964 1.88941 9.08216 1.78444 9.06717L0.499844 8.86973V7.12527L1.78194 6.92784C1.88441 6.91284 1.96689 6.83287 1.98938 6.7329C2.14433 5.99063 2.43674 5.28835 2.85411 4.64855C2.91159 4.56108 2.90909 4.44861 2.84661 4.36364L2.07935 3.31396L3.31147 2.07935L4.36114 2.84661C4.44611 2.90909 4.55858 2.91159 4.64605 2.85411C5.28585 2.43674 5.98813 2.14433 6.7304 1.98938C6.83287 1.96689 6.91034 1.88691 6.92534 1.78194L7.12527 0.499844H8.86973L9.06717 1.78194C9.08216 1.88441 9.16214 1.96689 9.26211 1.98938C10.0044 2.14433 10.7067 2.43674 11.3465 2.85411C11.4339 2.91159 11.5464 2.90909 11.6314 2.84661L12.681 2.07935L13.9132 3.31396L13.1459 4.36364C13.0834 4.44861 13.0809 4.56108 13.1384 4.64855C13.5558 5.28835 13.8482 5.99063 14.0031 6.7329C14.0256 6.83536 14.1056 6.91284 14.2106 6.92784L15.4952 7.12527V8.86973Z" fill="white"/>
<path d="M7.99755 1.41956C8.13144 1.41956 8.23998 1.31102 8.23998 1.17713C8.23998 1.04324 8.13144 0.934708 7.99755 0.934708C7.86366 0.934708 7.75513 1.04324 7.75513 1.17713C7.75513 1.31102 7.86366 1.41956 7.99755 1.41956Z" fill="white"/>
<path d="M7.99755 15.0578C8.13144 15.0578 8.23998 14.9493 8.23998 14.8154C8.23998 14.6815 8.13144 14.573 7.99755 14.573C7.86366 14.573 7.75513 14.6815 7.75513 14.8154C7.75513 14.9493 7.86366 15.0578 7.99755 15.0578Z" fill="white"/>
<path d="M12.6486 3.00406C12.5536 3.09903 12.5536 3.25148 12.6486 3.34645C12.7436 3.44142 12.896 3.44142 12.991 3.34645C13.086 3.25148 13.086 3.09903 12.991 3.00406C12.896 2.90909 12.7436 2.90909 12.6486 3.00406Z" fill="white"/>
<path d="M3.00409 12.6485C2.90912 12.7435 2.90912 12.896 3.00409 12.9909C3.09906 13.0859 3.25151 13.0859 3.34648 12.9909C3.44145 12.896 3.44145 12.7435 3.34648 12.6485C3.25151 12.5536 3.09906 12.5536 3.00409 12.6485Z" fill="white"/>
<path d="M14.8179 8.23993C14.9518 8.23993 15.0603 8.13139 15.0603 7.99751C15.0603 7.86362 14.9518 7.75508 14.8179 7.75508C14.684 7.75508 14.5754 7.86362 14.5754 7.99751C14.5754 8.13139 14.684 8.23993 14.8179 8.23993Z" fill="white"/>
<path d="M1.17724 8.23993C1.31113 8.23993 1.41966 8.13139 1.41966 7.99751C1.41966 7.86362 1.31113 7.75508 1.17724 7.75508C1.04335 7.75508 0.934814 7.86362 0.934814 7.99751C0.934814 8.13139 1.04335 8.23993 1.17724 8.23993Z" fill="white"/>
<path d="M12.6486 12.6485C12.5536 12.7435 12.5536 12.896 12.6486 12.9909C12.7436 13.0859 12.896 13.0859 12.991 12.9909C13.086 12.896 13.086 12.7435 12.991 12.6485C12.896 12.5536 12.7436 12.5536 12.6486 12.6485Z" fill="white"/>
<path d="M3.00409 3.00406C2.90912 3.09903 2.90912 3.25148 3.00409 3.34645C3.09906 3.44142 3.25151 3.44142 3.34648 3.34645C3.44145 3.25148 3.44145 3.09903 3.34648 3.00406C3.25151 2.90909 3.09906 2.90909 3.00409 3.00406Z" fill="white"/>
</svg>
