<svg xmlns="http://www.w3.org/2000/svg" viewBox="0 0 24 24" fill="currentColor"><path d="m11.24,3.62V.82h1.52v2.79h-1.52Zm0,19.56v-2.79h1.52v2.79h-1.52Zm9.15-10.42v-1.52h2.79v1.52h-2.79ZM.82,12.76v-1.52h2.79v1.52H.82Zm17.83-6.35l-1.09-1.09,1.68-1.68,1.09,1.09-1.68,1.68Zm-13.9,13.95l-1.09-1.09,1.68-1.68,1.09,1.09-1.68,1.68Zm14.48,0l-1.68-1.68,1.09-1.09,1.68,1.68-1.09,1.09ZM5.34,6.41l-1.68-1.68,1.09-1.09,1.68,1.68-1.09,1.09Zm6.66,11.31c-1.59,0-2.94-.55-4.05-1.66-1.11-1.11-1.66-2.46-1.66-4.05s.55-2.94,1.66-4.05c1.11-1.11,2.46-1.66,4.05-1.66s2.94.55,4.05,1.66c1.11,1.11,1.66,2.46,1.66,4.05s-.55,2.94-1.66,4.05c-1.11,1.11-2.46,1.66-4.05,1.66Zm0-1.52c1.17,0,2.16-.41,2.97-1.22.81-.81,1.22-1.8,1.22-2.97s-.41-2.16-1.22-2.97c-.81-.81-1.8-1.22-2.97-1.22s-2.16.41-2.97,1.22c-.81.81-1.22,1.8-1.22,2.97s.41,2.16,1.22,2.97c.81.81,1.8,1.22,2.97,1.22Z"/></svg>