<svg xmlns="http://www.w3.org/2000/svg" viewBox="0 0 24 24" fill="currentColor"><path d="m18.94,18.37c.26-.26.52-.54.76-.84.25-.3.42-.54.53-.72-1.78-.1-3.44-.49-5-1.16-1.55-.67-2.93-1.59-4.11-2.78s-2.12-2.56-2.79-4.12c-.67-1.56-1.05-3.21-1.15-4.95-.18.1-.42.27-.71.5-.29.23-.59.49-.89.79-1.83,1.83-2.75,4.03-2.75,6.59,0,2.57.93,4.79,2.81,6.67s4.11,2.81,6.69,2.79c2.58-.02,4.78-.94,6.61-2.77Zm1.02,1.33c-1.06,1.06-2.25,1.85-3.57,2.38-1.33.53-2.69.79-4.08.79-1.4,0-2.77-.28-4.12-.83-1.35-.56-2.58-1.39-3.69-2.5s-1.94-2.35-2.5-3.71c-.56-1.36-.84-2.75-.85-4.14-.01-1.4.25-2.76.78-4.09.54-1.33,1.33-2.53,2.39-3.58.71-.71,1.48-1.31,2.33-1.82.85-.51,1.63-.86,2.35-1.06-.29,2.01-.15,3.93.42,5.77.57,1.83,1.53,3.43,2.89,4.79s2.94,2.3,4.8,2.88c1.85.57,3.77.71,5.76.39-.2.72-.55,1.51-1.06,2.37-.51.86-1.12,1.65-1.84,2.37Z"/></svg>