<?xml version="1.0" encoding="utf-8"?>
<!-- Generator: Adobe Illustrator 25.1.0, SVG Export Plug-In . SVG Version: 6.00 Build 0)  -->
<svg version="1.1" xmlns="http://www.w3.org/2000/svg" xmlns:xlink="http://www.w3.org/1999/xlink" x="0px" y="0px"
	 viewBox="0 0 2430.2 1721.2" style="enable-background:new 0 0 2430.2 1721.2;" xml:space="preserve">
<style type="text/css">
	.st0{display:none;}
	.st1{display:inline;fill:#153461;}
	.st2{display:inline;opacity:0.3;}
	.st3{fill:none;stroke:#DD4ADD;stroke-width:1.1209;stroke-miterlimit:10;}
	.st4{display:inline;opacity:0.5;}
	.st5{fill:#DD4ADD;}
	.st6{fill:none;stroke:#FFFFFF;stroke-width:2;stroke-miterlimit:10;}
	.st7{fill:none;stroke:#00ADE4;stroke-width:2;stroke-miterlimit:10;}
	.st8{fill:none;stroke:#FFFFFF;stroke-width:2;stroke-linecap:square;stroke-miterlimit:10;}
	.st9{fill:none;stroke:#F2BA44;stroke-width:2;stroke-miterlimit:10;}
	.st10{fill:#FFFFFF;}
	.st11{clip-path:url(#SVGID_2_);fill:none;stroke:#00ADE4;stroke-width:2;stroke-miterlimit:10;}
	.st12{clip-path:url(#SVGID_4_);fill:none;stroke:#00ADE4;stroke-width:2;stroke-miterlimit:10;}
	.st13{clip-path:url(#SVGID_6_);fill:none;stroke:#00ADE4;stroke-width:2;stroke-miterlimit:10;}
	.st14{fill:#00ADE4;}
	.st15{fill:none;stroke:#FFFFFF;stroke-width:2;}
	.st16{opacity:0.3;}
	.st17{fill:#00ADE4;stroke:#00ADE4;stroke-miterlimit:10;}
	.st18{opacity:0.6;}
	.st19{fill-rule:evenodd;clip-rule:evenodd;fill:none;stroke:#FFFFFF;stroke-width:2;stroke-miterlimit:10;}
	.st20{fill:none;stroke:#4FACDF;stroke-width:2;stroke-miterlimit:10;}
	.st21{fill:#FFFFFF;stroke:#FFFFFF;stroke-width:2;stroke-miterlimit:10;}
	.st22{fill:none;stroke:#00A0DF;stroke-width:2;stroke-miterlimit:10;}
</style>
<g id="Reference" class="st0">
	
		<image style="display:inline;overflow:visible;" width="3808" height="2258" xlink:href="D4BA146C9DCC15D1.png"  transform="matrix(0.9147 0 0 0.9147 -939.1922 -214.9771)">
	</image>
</g>
<g id="Background" class="st0">
	<rect class="st1" width="2430.2" height="1721.2"/>
</g>
<g id="Grid" class="st0">
	<g class="st2">
		<rect class="st3" width="404.2" height="286.9"/>
		<rect x="404.2" class="st3" width="404.2" height="286.9"/>
		<rect x="808.4" class="st3" width="404.2" height="286.9"/>
		<rect x="1212.6" class="st3" width="404.2" height="286.9"/>
		<rect x="1616.7" class="st3" width="404.2" height="286.9"/>
		<rect x="2020.9" class="st3" width="404.2" height="286.9"/>
		<rect y="286.9" class="st3" width="404.2" height="286.9"/>
		<rect x="404.2" y="286.9" class="st3" width="404.2" height="286.9"/>
		<rect x="808.4" y="286.9" class="st3" width="404.2" height="286.9"/>
		<rect x="1212.6" y="286.9" class="st3" width="404.2" height="286.9"/>
		<rect x="1616.7" y="286.9" class="st3" width="404.2" height="286.9"/>
		<rect x="2020.9" y="286.9" class="st3" width="404.2" height="286.9"/>
		<rect y="573.7" class="st3" width="404.2" height="286.9"/>
		<rect x="404.2" y="573.7" class="st3" width="404.2" height="286.9"/>
		<rect x="808.4" y="573.7" class="st3" width="404.2" height="286.9"/>
		<rect x="1212.6" y="573.7" class="st3" width="404.2" height="286.9"/>
		<rect x="1616.7" y="573.7" class="st3" width="404.2" height="286.9"/>
		<rect x="2020.9" y="573.7" class="st3" width="404.2" height="286.9"/>
		<rect y="860.6" class="st3" width="404.2" height="286.9"/>
		<rect x="404.2" y="860.6" class="st3" width="404.2" height="286.9"/>
		<rect x="808.4" y="860.6" class="st3" width="404.2" height="286.9"/>
		<rect x="1212.6" y="860.6" class="st3" width="404.2" height="286.9"/>
		<rect x="1616.7" y="860.6" class="st3" width="404.2" height="286.9"/>
		<rect x="2020.9" y="860.6" class="st3" width="404.2" height="286.9"/>
		<rect y="1147.5" class="st3" width="404.2" height="286.9"/>
		<rect x="404.2" y="1147.5" class="st3" width="404.2" height="286.9"/>
		<rect x="808.4" y="1147.5" class="st3" width="404.2" height="286.9"/>
		<rect x="1212.6" y="1147.5" class="st3" width="404.2" height="286.9"/>
		<rect x="1616.7" y="1147.5" class="st3" width="404.2" height="286.9"/>
		<rect x="2020.9" y="1147.5" class="st3" width="404.2" height="286.9"/>
		<rect y="1434.3" class="st3" width="404.2" height="286.9"/>
		<rect x="404.2" y="1434.3" class="st3" width="404.2" height="286.9"/>
		<rect x="808.4" y="1434.3" class="st3" width="404.2" height="286.9"/>
		<rect x="1212.6" y="1434.3" class="st3" width="404.2" height="286.9"/>
		<rect x="1616.7" y="1434.3" class="st3" width="404.2" height="286.9"/>
		<rect x="2020.9" y="1434.3" class="st3" width="404.2" height="286.9"/>
	</g>
</g>
<g id="Margin" class="st0">
	<g class="st4">
		<polygon class="st5" points="2400.7,1685.5 2400.7,1649.9 69.8,1649.9 69.7,71.4 2361.4,71.4 2361.4,1685.5 2400.7,1685.5 
			2400.7,1649.9 2400.7,1685.5 2430.1,1685.5 2430.1,0 0,0 0,1721.2 2430.1,1721.2 2430.1,1685.5 		"/>
	</g>
</g>
<g id="Art">
	<line class="st6" x1="207.9" y1="283" x2="207.9" y2="252.9"/>
	<path class="st6" d="M1894.6,854.1v628.1h127.6"/>
	<path class="st6" d="M1616.7,860.6V0.6"/>
	<path class="st6" d="M1616.7,1137.3V1314h-331.9c-0.6-4.1-0.9-8.2-0.9-12.5c0-47,38.2-85.2,85.3-85.2c4.3,0,8.5,0.3,12.7,0.9
		c3-44.3,39.9-79.3,85-79.3c20,0,38.3,6.9,52.8,18.4c15.5-16.4,37.5-26.6,61.8-26.6C1594.1,1129.7,1606,1132.4,1616.7,1137.3z"/>
	<path class="st6" d="M1138,1306.5c0,2.5-0.1,5-0.3,7.4h-328v-135c15.6-18.8,39.2-30.7,65.5-30.7c24.8,0,47.2,10.6,62.8,27.6
		c11.8-6.2,25.2-9.7,39.5-9.7c36.6,0,67.7,23,79.8,55.3C1102.3,1223.8,1138,1260.9,1138,1306.5z"/>
	<path class="st7" d="M1361,1015.5v56.2"/>
	<path class="st7" d="M1065.5,1015.5v56.2"/>
	<path class="st7" d="M1379.4,1015.5v41.1"/>
	<path class="st7" d="M1048.1,1015.5v41.1"/>
	<path class="st6" d="M1239,1032.3h-54.5l-12.9,31.8h80.3L1239,1032.3z"/>
	<path class="st6" d="M0,1314.1h810.6v407.1"/>
	<path class="st6" d="M1894.6,855.1h-277.9v459"/>
	<path class="st8" d="M1053.7,855.1h-244"/>
	<path class="st8" d="M809.7,855.1V1314h807.1V855.1c-81.6,0-163.2,0-244.9,0"/>
	<path class="st6" d="M1029.7,740.6h-27.4"/>
	<path class="st6" d="M1016,726.9v27.4"/>
	<path class="st6" d="M1511.4,534H1484"/>
	<path class="st6" d="M1497.7,520.4v27.4"/>
	<path class="st9" d="M1420.1,640.3h-27.4"/>
	<path class="st9" d="M1406.4,626.6V654"/>
	<path class="st7" d="M1378.3,484.5h-27.4"/>
	<path class="st7" d="M1364.6,470.8v27.4"/>
	<path class="st6" d="M1333.5,373h-27.4"/>
	<path class="st6" d="M1319.8,359.3v27.4"/>
	<path class="st9" d="M932.3,601.3h-27.4"/>
	<path class="st9" d="M918.7,587.6V615"/>
	<path class="st7" d="M951.6,370.1h-27.4"/>
	<path class="st7" d="M937.9,356.4v27.4"/>
	<path class="st7" d="M1491.6,395.6h-27.4"/>
	<path class="st7" d="M1478,381.9v27.4"/>
	<path class="st9" d="M1142,403.6h-27.4"/>
	<path class="st9" d="M1128.3,389.9v27.4"/>
	<path class="st7" d="M1081.8,616.4h-27.4"/>
	<path class="st7" d="M1068.1,602.7V630"/>
	<path class="st6" d="M1060.2,481.1h-27.4"/>
	<path class="st6" d="M1046.5,467.4v27.4"/>
	<g>
		<path class="st6" d="M1889.7,480.8v128.4h-3.2H1773c13,0,23.6,10.5,23.6,23.6c0,6.5-2.6,18.7-6.9,23l-16.7,0.6
			c-13,0-23.6-10.5-23.6-23.6V457.2h116.6C1879.2,457.2,1889.7,467.8,1889.7,480.8z"/>
		<path class="st7" d="M1806.2,514.5l-15.8,21.8l15.8,21.8"/>
		<path class="st7" d="M1835.4,559l15.8-21.8l-15.8-21.8"/>
		<path class="st7" d="M1829.5,515.2l-16.4,43.4"/>
		<path class="st10" d="M1926,632.8c0,13-10.5,23.6-23.6,23.6H1773c6.5,0,12.5-2.6,16.7-6.9c4.2-4.3,6.9-10.1,6.9-16.6
			c0-13-10.5-23.6-23.6-23.6h129.4C1915.4,609.2,1926,619.8,1926,632.8z"/>
	</g>
	<path class="st6" d="M809.7,855.1V249.4H405.9"/>
	<path class="st6" d="M1260.1,1085.9l60.3,135.4"/>
	<path class="st7" d="M1255.2,1119.2l36.2,95.8"/>
	<path class="st7" d="M1174.8,1106.2l-42.2,93.3"/>
	<path class="st6" d="M1164.6,1087.3l-68,134.6"/>
	<path class="st6" d="M1326,842.1c46.5,0,84.3,37.7,84.3,84.3v63.5H1326V842.1z"/>
	<path class="st6" d="M1099.1,842.1c-46.5,0-84.3,37.7-84.3,84.3v63.5h84.3V842.1z"/>
	<path class="st6" d="M1305.5,639.4v380.6h-185.8V639.4l55.6-132.9c6.3-15,21-24.8,37.3-24.8c8.2,0,15.9,2.5,22.4,6.8
		c6.5,4.3,11.8,10.5,14.9,18L1305.5,639.4z"/>
	<g>
		<circle class="st6" cx="1213.6" cy="689.5" r="50.9"/>
		<circle class="st6" cx="1213.6" cy="689.5" r="62.9"/>
	</g>
	<path class="st7" d="M825.5,1200.8c7.7-20.6,27.6-35.3,51-35.3c22.1,0,41.1,13.1,49.6,31.8"/>
	<g>
		<defs>
			
				<rect id="SVGID_1_" x="1303.5" y="1240.8" transform="matrix(0.8563 -0.5166 0.5166 0.8563 -455.9261 881.544)" width="104.9" height="38.4"/>
		</defs>
		<clipPath id="SVGID_2_">
			<use xlink:href="#SVGID_1_"  style="overflow:visible;"/>
		</clipPath>
		<path class="st11" d="M1322.4,1301.7c-4.1-21.6,5.4-44.5,25.4-56.6c18.9-11.4,41.9-10,58.9,1.6"/>
	</g>
	<g>
		<defs>
			
				<rect id="SVGID_3_" x="1519.7" y="1155" transform="matrix(0.9876 -0.1571 0.1571 0.9876 -164.2807 260.0947)" width="87.9" height="29.1"/>
		</defs>
		<clipPath id="SVGID_4_">
			<use xlink:href="#SVGID_3_"  style="overflow:visible;"/>
		</clipPath>
		<path class="st12" d="M1524.2,1189.9c3.9-16.4,18.7-30,38-33.1c18.3-2.9,35.5,4.4,44.8,17.3"/>
	</g>
	<g>
		<defs>
			
				<rect id="SVGID_5_" x="1075.2" y="1210.2" transform="matrix(0.6355 -0.7721 0.7721 0.6355 -578.0751 1301.8018)" width="29.1" height="105.8"/>
		</defs>
		<clipPath id="SVGID_6_">
			<use xlink:href="#SVGID_5_"  style="overflow:visible;"/>
		</clipPath>
		<path class="st13" d="M1029.7,1245.5c15.9-7.1,38.5-2.9,56.7,12.1c17.2,14.2,25.7,34,23.3,50.4"/>
	</g>
	<g>
		<g>
			<g>
				<path class="st6" d="M300.9,177.6l24.5,52.9c1.7,3.6-1,7.7-4.9,7.7h-15.5v13.4c0,14.6-11.8,26.4-26.4,26.4h-23.9"/>
				<path class="st6" d="M194.2,188.9v33.2h-17.4v6.2c0,13.5,11,24.5,24.5,24.5h13.1v-44.5h0.3c10.1,0,18.2-8.2,18.2-18.2v-1.2"/>
			</g>
			<path class="st14" d="M198.1,161.6h88.3v-0.8h15.5c0.9,0,1.8,0.2,2.5,0.5c2.3,1,4,3.3,4,6v22.9v1h-2.2H192.7v-23.9
				c0-2.4,1.4-4.6,3.4-5.7H198.1z"/>
			<path class="st14" d="M198,163.3h106.4c0-0.7,0-1.3,0-2c-1.1-28.4-24.4-51.2-53.1-51.2c-28,0-50.9,21.6-53,49.1h88.2v2.4h-88.3
				C198.1,162.1,198,162.7,198,163.3z"/>
			<path class="st14" d="M251.7,120c3.7,0,6.6-3,6.6-6.6c0-3.7-3-6.6-6.6-6.6c-3.7,0-6.6,3-6.6,6.6C245,117,248,120,251.7,120z"/>
			<path class="st10" d="M285.1,211.3c1.9,0,3.5-1.6,3.5-3.5s-1.6-3.5-3.5-3.5c-1.9,0-3.5,1.6-3.5,3.5S283.2,211.3,285.1,211.3z"/>
		</g>
		<path class="st6" d="M240,405c91.5,0,165.6-74.1,165.6-165.6c0-91.4-74.2-165.5-165.6-165.5c-91.5,0-165.6,74.1-165.6,165.5
			C74.3,330.9,148.5,405,240,405z"/>
	</g>
	<g>
		<g>
			<path class="st14" d="M694.2,1196.2c14.7,0,26.7-12,26.7-26.7c0-14.7-12-26.7-26.7-26.7c-14.7,0-26.7,12-26.7,26.7
				C667.5,1184.3,679.5,1196.2,694.2,1196.2z"/>
			<path class="st6" d="M717,1169.6c0,15.8-12.8,28.6-28.6,28.6c-0.8,0-1.7,0-2.5-0.1l-12.3,12.4l0.1-16.4
				c-8.3-5-13.9-14.1-13.9-24.5c0-15.8,12.8-28.6,28.6-28.6C704.3,1141,717,1153.8,717,1169.6z"/>
			<path class="st6" d="M679.7,1171.8l7.1,8.8l17.8-17.8"/>
		</g>
		<path class="st15" d="M729.5,1228h-78.2c-15.3,0-27.7-12.4-27.7-27.7v-56.2c0-12.3,10-22.3,22.3-22.3h83.6
			c15.3,0,27.7,12.4,27.7,27.7v50.8C757.2,1215.6,744.8,1228,729.5,1228z"/>
		<line class="st15" x1="690.4" y1="1313.4" x2="690.4" y2="1228.4"/>
	</g>
	<g>
		<line class="st15" x1="132.6" y1="1313.4" x2="132.6" y2="1198.7"/>
	</g>
	<g>
		<g class="st16">
			<path class="st17" d="M552.8,1203.1c-13,0-19.5-13-25.7-25.5c-6.4-12.8-12.4-24.9-24.7-24.9c-12.2,0-18.3,12.1-24.7,24.9
				c-6.3,12.5-12.7,25.5-25.7,25.5c-13,0-19.5-13-25.8-25.5c-6.4-12.8-12.4-24.8-24.6-24.8c-12.2,0-18.3,12.1-24.7,24.9
				c-6.3,12.5-12.8,25.5-25.7,25.5c-13,0-19.4-13-25.7-25.5c-6.4-12.8-12.4-24.9-24.6-24.9c-12.2,0-18.3,12.1-24.7,24.9
				c-6.3,12.5-12.8,25.5-25.7,25.5c-13,0-19.4-13-25.7-25.5c-6.4-12.8-12.4-24.9-24.6-24.9v-1.2c13,0,19.4,13,25.7,25.5
				c6.4,12.8,12.4,24.9,24.6,24.9c12.2,0,18.3-12.1,24.7-24.9c6.3-12.5,12.8-25.5,25.7-25.5c13,0,19.4,13,25.7,25.5
				c6.4,12.8,12.4,24.9,24.6,24.9c12.2,0,18.3-12.1,24.7-24.9c6.3-12.5,12.8-25.5,25.7-25.5c12.9,0,19.4,13,25.7,25.5
				c6.4,12.8,12.4,24.9,24.7,24.9c12.2,0,18.3-12.1,24.7-24.9c6.3-12.5,12.7-25.5,25.7-25.5c13,0,19.5,13,25.7,25.5
				c6.4,12.8,12.4,24.9,24.7,24.9c12.2,0,18.3-12.1,24.7-24.9c6.3-12.5,12.8-25.5,25.7-25.5v1.2c-12.2,0-18.2,12.1-24.6,24.8
				C572.3,1190.1,565.8,1203.1,552.8,1203.1z"/>
		</g>
		<g class="st18">
			<path class="st17" d="M562.6,1203.1c-13,0-19.5-13-25.7-25.5c-6.4-12.8-12.4-24.9-24.7-24.9s-18.3,12.1-24.7,24.9
				c-6.3,12.5-12.7,25.5-25.7,25.5c-13,0-19.5-13-25.8-25.5c-6.4-12.8-12.4-24.8-24.6-24.8c-12.2,0-18.3,12.1-24.7,24.9
				c-6.3,12.5-12.8,25.5-25.7,25.5c-13,0-19.4-13-25.7-25.5c-6.4-12.8-12.4-24.9-24.6-24.9c-12.2,0-18.3,12.1-24.7,24.9
				c-6.3,12.5-12.8,25.5-25.7,25.5c-13,0-19.4-13-25.7-25.5c-6.4-12.8-12.4-24.9-24.6-24.9v-1.2c13,0,19.4,13,25.7,25.5
				c6.4,12.8,12.4,24.9,24.6,24.9c12.2,0,18.3-12.1,24.7-24.9c6.3-12.5,12.8-25.5,25.7-25.5c13,0,19.4,13,25.7,25.5
				c6.4,12.8,12.4,24.9,24.6,24.9c12.2,0,18.3-12.1,24.7-24.9c6.3-12.5,12.8-25.5,25.7-25.5c12.9,0,19.4,13,25.7,25.5
				c6.4,12.8,12.4,24.9,24.7,24.9c12.2,0,18.3-12.1,24.7-24.9c6.3-12.5,12.7-25.5,25.7-25.5s19.5,13,25.7,25.5
				c6.4,12.8,12.4,24.9,24.7,24.9c12.2,0,18.3-12.1,24.7-24.9c6.3-12.5,12.8-25.5,25.7-25.5v1.2c-12.2,0-18.2,12.1-24.6,24.8
				C582.1,1190.1,575.6,1203.1,562.6,1203.1z"/>
		</g>
		<g>
			<path class="st17" d="M572.4,1203.1c-13,0-19.5-13-25.7-25.5c-6.4-12.8-12.4-24.9-24.7-24.9c-12.2,0-18.3,12.1-24.7,24.9
				c-6.3,12.5-12.7,25.5-25.7,25.5c-13,0-19.5-13-25.8-25.5c-6.4-12.8-12.4-24.8-24.6-24.8c-12.2,0-18.3,12.1-24.7,24.9
				c-6.3,12.5-12.8,25.5-25.7,25.5c-13,0-19.4-13-25.7-25.5c-6.4-12.8-12.4-24.9-24.6-24.9c-12.2,0-18.3,12.1-24.7,24.9
				c-6.3,12.5-12.8,25.5-25.7,25.5c-13,0-19.4-13-25.7-25.5c-6.4-12.8-12.4-24.9-24.6-24.9v-1.2c13,0,19.4,13,25.7,25.5
				c6.4,12.8,12.4,24.9,24.6,24.9c12.2,0,18.3-12.1,24.7-24.9c6.3-12.5,12.8-25.5,25.7-25.5c13,0,19.4,13,25.7,25.5
				c6.4,12.8,12.4,24.9,24.6,24.9c12.2,0,18.3-12.1,24.7-24.9c6.3-12.5,12.8-25.5,25.7-25.5c12.9,0,19.4,13,25.7,25.5
				c6.4,12.8,12.4,24.9,24.7,24.9c12.2,0,18.3-12.1,24.7-24.9c6.3-12.5,12.7-25.5,25.7-25.5c13,0,19.5,13,25.7,25.5
				c6.4,12.8,12.4,24.9,24.7,24.9c12.2,0,18.3-12.1,24.7-24.9c6.3-12.5,12.8-25.5,25.7-25.5v1.2c-12.2,0-18.2,12.1-24.6,24.8
				C591.9,1190.1,585.4,1203.1,572.4,1203.1z"/>
		</g>
		<path class="st15" d="M532.1,1228H271.7c-15.3,0-27.7-12.4-27.7-27.7v-50.8c0-15.3,12.4-27.7,27.7-27.7h260.5
			c15.3,0,27.7,12.4,27.7,27.7v50.8C559.8,1215.6,547.4,1228,532.1,1228z"/>
		<line class="st15" x1="412.3" y1="1313.4" x2="412.3" y2="1228.4"/>
	</g>
	<g>
		
			<ellipse transform="matrix(0.9833 -0.1818 0.1818 0.9833 -212.1949 36.6854)" class="st14" cx="94" cy="1175.7" rx="17.6" ry="17.6"/>
		<path class="st6" d="M172.5,1154c12,0,21.7,9.7,21.7,21.7c0,12-9.7,21.7-21.7,21.7l-81.2,0c-12,0-21.7-9.7-21.7-21.7
			c0-12,9.7-21.7,21.7-21.7L172.5,1154z"/>
	</g>
	<line class="st6" x1="1325.7" y1="855.8" x2="1305.1" y2="855.8"/>
	<line class="st6" x1="1119.3" y1="855.8" x2="1098.7" y2="855.8"/>
	<g>
		<g>
			<g>
				<g>
					<g>
						<g>
							<line class="st19" x1="2281.2" y1="970.6" x2="2035.3" y2="970.6"/>
						</g>
					</g>
				</g>
			</g>
			<g>
				
					<rect x="2057.1" y="908.7" transform="matrix(-1.836970e-16 1 -1 -1.836970e-16 3203.5029 -1113.0746)" class="st6" width="202.3" height="273.1"/>
				<rect x="2035.3" y="957.6" class="st6" width="246" height="175.3"/>
			</g>
			<polygon class="st19" points="2209.8,1175.4 2202.2,1146.4 2160.8,1146.4 2155.7,1146.4 2114.4,1146.4 2106.7,1175.4 
				2097.7,1175.4 2097.7,1183.4 2158.3,1183.4 2218.9,1183.4 2218.9,1175.4 			"/>
		</g>
	</g>
	<g>
		<path class="st6" d="M1193.8,192c7.2,0,13.1-5.8,13.1-13.1c0-7.2-5.8-13.1-13.1-13.1c-7.2,0-13.1,5.8-13.1,13.1
			C1180.7,186.2,1186.6,192,1193.8,192z"/>
		<path class="st6" d="M1229.1,192c7.2,0,13.1-5.8,13.1-13.1c0-7.2-5.8-13.1-13.1-13.1c-7.2,0-13.1,5.8-13.1,13.1
			C1216.1,186.2,1221.9,192,1229.1,192z"/>
		<path class="st6" d="M1264,204.2c-1.9,30.3-24.5,54.3-52.1,54.3c-27.7,0-50.4-24.1-52.1-54.6c-0.1-1.2-0.1-2.5-0.1-3.8
			c0-9.3,2-18.1,5.4-25.9c0-0.7-0.1-1.4-0.1-2.1c0-3.8,0.5-7.5,1.3-11.1c5-20.3,23.3-35.4,45.1-35.4c21.8,0,40.1,15.1,45.1,35.3
			c-0.1,0-0.1,0-0.2,0"/>
		<path class="st6" d="M1244.3,218c-8.4,8.4-20,13.6-32.9,13.6c-11.9,0-22.8-4.5-31.1-11.9"/>
		<path class="st10" d="M1204.2,206.2c1.7,0,3.1-1.4,3.1-3.1c0-1.7-1.4-3.1-3.1-3.1c-1.7,0-3.1,1.4-3.1,3.1
			C1201.1,204.9,1202.5,206.2,1204.2,206.2z"/>
		<path class="st10" d="M1219.5,206.2c1.7,0,3.1-1.4,3.1-3.1c0-1.7-1.4-3.1-3.1-3.1c-1.7,0-3.1,1.4-3.1,3.1
			C1216.5,204.9,1217.8,206.2,1219.5,206.2z"/>
		<path class="st10" d="M1194.7,182.4c1.7,0,3.1-1.4,3.1-3.1c0-1.7-1.4-3.1-3.1-3.1c-1.7,0-3.1,1.4-3.1,3.1
			C1191.6,181,1193,182.4,1194.7,182.4z"/>
		<path class="st10" d="M1228.7,182.4c1.7,0,3.1-1.4,3.1-3.1c0-1.7-1.4-3.1-3.1-3.1c-1.7,0-3.1,1.4-3.1,3.1
			C1225.6,181,1227,182.4,1228.7,182.4z"/>
		<path class="st6" d="M1165,174.2c-3.5,7.8-5.4,16.6-5.4,25.9c0,1.3,0,2.5,0.1,3.8c-8.2-3.3-13.9-11.3-13.9-20.7
			c0-11.7,9-21.3,20.5-22.2c-0.9,3.5-1.3,7.3-1.3,11.1C1165,172.8,1165,173.5,1165,174.2z"/>
		<path class="st6" d="M1278.7,183.2c0,9.7-6.1,17.9-14.7,21c0.1-1.3,0.1-2.7,0.1-4.1c0-9.9-2.2-19.3-6.2-27.5c0-0.2,0-0.4,0-0.5
			c0-3.8-0.5-7.6-1.3-11.1C1268.8,161,1278.7,171,1278.7,183.2z"/>
		<path class="st6" d="M1178.5,139.4c3.5-3.8,8.4-6.1,14-6.1c10.5,0,19,8.5,19,19"/>
		<path class="st6" d="M1211.5,152.3c0-10.5,8.5-19,19-19c5.2,0,9.9,2.1,13.4,5.5"/>
		<path class="st7" d="M1295,135.6h11.1c14,0,14.3,11.4,14.3,25.4v9.8c0,14-0.3,25.4-14.3,25.4H1295"/>
		<path class="st7" d="M1130.1,196.2H1119c-14,0-14.3-11.4-14.3-25.4V161c0-14,0.3-25.4,14.3-25.4h11.1"/>
		<path class="st7" d="M1286.5,163.4c0,0,2.3-40.5-76.5-40.5c-73.3,0-70,40-70,40l4.1,62.2c0.7,0.7-1.9-2.7-2.8-4
			c-0.1-0.1-0.2-0.2-0.2-0.3c-1-1.5-2-3-2.9-4.6c-3.7-6.2-6.6-13-8.8-20c-2.7-8.9-4.2-18.4-4.2-28.3c0-50.7,38.8-91.7,86.8-91.7
			c47.9,0,86.7,41,86.7,91.7c0,17.8-5.6,38-13,48.4L1286.5,163.4z"/>
		<path class="st20" d="M1286.5,163.4l-0.9,52.8c-3.4,6-4.9,7.7-7.7,11.1c-15.9,19.7-39.6,32.3-66,32.3c-26.4,0-50.1-12.5-65.9-32.3
			c-0.6-0.7-1.2-1.5-1.8-2.3l-4.1-62.2c0,0-3.3-40,70-40C1288.8,123,1286.5,163.4,1286.5,163.4z"/>
		<path class="st20" d="M1138.1,216.3c0.9,1.5,1.9,3,2.9,4.6c0.1,0.1,0.1,0.2,0.2,0.3c0.9,1.4,1.9,2.7,2.8,4"/>
		<path class="st7" d="M1300.1,241.5c0,24-39.1,43.6-87.3,43.6c-48.2,0-87.2-19.5-87.2-43.6c0-10.5,7.7-13.8,20.2-14.1
			c15.9,19.7,39.5,32.3,65.9,32.3c26.4,0,50.1-12.6,66-32.3C1291.7,227.3,1300.1,230.2,1300.1,241.5z"/>
	</g>
	<g>
		<circle class="st21" cx="571.9" cy="1514.3" r="11.2"/>
		<circle class="st21" cx="571.9" cy="1598.6" r="11.2"/>
		<circle class="st21" cx="571.9" cy="1432.5" r="11.2"/>
		<circle class="st21" cx="492.6" cy="1514.3" r="11.2"/>
		<circle class="st21" cx="492.6" cy="1598.6" r="11.2"/>
		<circle class="st21" cx="492.6" cy="1432.5" r="11.2"/>
		<circle class="st21" cx="410.8" cy="1514.3" r="11.2"/>
		<circle class="st21" cx="324" cy="1601" r="11.2"/>
		<circle class="st21" cx="324" cy="1514.3" r="11.2"/>
		<circle class="st21" cx="237.2" cy="1514.3" r="11.2"/>
		<circle class="st21" cx="237.2" cy="1514.3" r="11.2"/>
		<circle class="st21" cx="237.2" cy="1598.6" r="11.2"/>
		<circle class="st21" cx="324" cy="1432.5" r="11.2"/>
		<circle class="st21" cx="410.8" cy="1598.6" r="11.2"/>
		<circle class="st21" cx="410.8" cy="1432.5" r="11.2"/>
		<circle class="st21" cx="237.2" cy="1432.5" r="11.2"/>
		<line class="st21" x1="571.9" y1="1432.5" x2="500" y2="1432.5"/>
		<line class="st21" x1="490.1" y1="1516.7" x2="573.2" y2="1599.8"/>
		<line class="st21" x1="410.8" y1="1598.6" x2="569.5" y2="1598.6"/>
		<line class="st21" x1="410.8" y1="1514.3" x2="324" y2="1601"/>
	</g>
	<g>
		
			<ellipse transform="matrix(0.9846 -0.1747 0.1747 0.9846 -246.14 217.8016)" class="st14" cx="1114.1" cy="1507.1" rx="51.6" ry="51.6"/>
		<path class="st6" d="M1344.2,1443.6c35,0,63.5,28.4,63.5,63.5c0,35-28.4,63.5-63.5,63.5l-238,0c-35,0-63.5-28.4-63.5-63.5
			c0-35,28.4-63.5,63.5-63.5L1344.2,1443.6z"/>
	</g>
	<g>
		<path class="st7" d="M1809,1038.5c16.8,20.8,18.7,51,2.8,74.2c-19.5,28.3-58.1,35.4-86.4,16c-28.2-19.5-35.4-58.1-16-86.4
			c15.8-22.9,44.2-32,69.4-24.2"/>
		<path class="st10" d="M1788.7,1027.4c1.7-2.4,4.9-3,7.4-1.4c2.4,1.6,3,4.9,1.4,7.3l-31.5,45.7c-1.7,2.4-4.9,3-7.3,1.4
			c-2.4-1.6-3-4.9-1.4-7.3L1788.7,1027.4z"/>
		<path class="st7" d="M1799.7,1326.1c-20.8,16.8-51,18.7-74.2,2.8c-28.3-19.5-35.4-58.1-16-86.4c19.5-28.2,58.1-35.4,86.4-16
			c22.9,15.8,32,44.2,24.2,69.4"/>
		<path class="st10" d="M1810.8,1305.8c2.4,1.7,3,4.9,1.4,7.4c-1.6,2.4-4.9,3-7.3,1.4l-45.7-31.5c-2.4-1.7-3-4.9-1.4-7.3
			c1.6-2.4,4.9-3,7.3-1.4L1810.8,1305.8z"/>
		<path class="st7" d="M1721.6,1429.5c20.8-16.8,51-18.7,74.2-2.8c28.3,19.5,35.4,58.1,16,86.4c-19.5,28.2-58.1,35.4-86.4,16
			c-22.9-15.8-31.9-44.2-24.2-69.4"/>
		<path class="st10" d="M1710.5,1449.8c-2.4-1.7-3-4.9-1.4-7.4c1.6-2.4,4.9-3,7.3-1.4l45.7,31.5c2.4,1.7,3,4.9,1.4,7.3
			c-1.6,2.4-4.9,3-7.3,1.4L1710.5,1449.8z"/>
	</g>
	<g>
		<g>
			<path class="st6" d="M461.9,721.2c-3.2-1.8-6.3-3.8-9.2-6.1l-23.6,4.7l-15-25l14.5-17.9c-2.3-9.5-2.5-19.7-0.6-29.7l-14.6-17.2
				l14.4-25.1l22.2,3.9c7.3-6.5,15.9-11.4,25-14.1l7.7-21.6l29.2-0.2l8.1,22.7c3.7,1.2,7.3,3.1,10.7,5c3.2,1.8,6.3,3.8,9.2,6.1
				l23.6-4.7l15,25l-14.5,17.9c2.3,9.5,2.5,19.7,0.6,29.7l14.6,17.2L564.7,717l-22.2-3.9c-7.3,6.5-15.9,11.4-25,14.1l-7.7,21.6
				l-29.2,0.2l-8.1-22.7C469,725.1,465.4,723.2,461.9,721.2z"/>
			<path class="st14" d="M461.3,640.6c11.1-19.4,36-26.3,55.5-15.1c19.6,11.2,26.1,35.9,14.9,55.4c-11.2,19.6-36,26.3-55.4,15.2
				C457,685.1,450.2,660.1,461.3,640.6z"/>
		</g>
		<g>
			<path class="st7" d="M317.1,818.9c-1.8-1.5-3.4-3.2-4.9-4.9l-15,0.2l-6.2-17.2l11.1-9.3c-0.3-6,0.7-12.5,3.2-18.2l-7-12.4
				l11.9-13.8l13.3,5c5.2-3.2,11.1-5.1,16.9-5.9l7.2-12.3l17.8,3.4l2.4,14.9c2.1,1.2,4.1,2.6,6.1,4.3c1.8,1.5,3.4,3.2,4.8,4.7
				l15-0.2l6.2,17.2l-11.1,9.3c0.3,6-0.7,12.5-3.2,18.2l7,12.4l-11.9,13.8l-13.3-5c-5.2,3.2-11.1,5.1-17.1,5.7l-7.2,12.3l-17.9-3.6
				l-2.4-14.9C321.1,822,319.1,820.5,317.1,818.9z"/>
			<path class="st10" d="M330.3,774.5c6.8-7.9,18.8-8.8,26.7-2c7.9,6.8,8.8,18.8,2,26.7c-6.8,7.9-18.8,8.8-26.7,2
				S323.5,782.4,330.3,774.5z"/>
		</g>
		<g>
			<g>
				<path class="st7" d="M250.6,778.9c-0.7,30.2,13.2,57.4,35.1,74.7"/>
				<g>
					<polygon class="st14" points="275.4,855.6 275.3,853.6 285.1,853.1 283.8,843.3 285.8,843 287.4,854.9 					"/>
				</g>
			</g>
		</g>
		<g>
			<g>
				<path class="st7" d="M622.1,672.2c10.7-48.4-18.7-96.9-66.7-109.7"/>
				<g>
					<polygon class="st14" points="564,556.6 564.9,558.4 556.1,562.8 561.2,571.3 559.5,572.3 553.3,562 					"/>
				</g>
			</g>
		</g>
	</g>
	<g>
		<path class="st6" d="M2189.5,1641.2c93.1,0,168.5-75.4,168.5-168.5c0-93-75.5-168.4-168.5-168.4c-93.1,0-168.5,75.4-168.5,168.4
			C2020.9,1565.8,2096.4,1641.2,2189.5,1641.2z"/>
		<g>
			<circle class="st14" cx="2236.6" cy="1390" r="20.7"/>
			<line class="st6" x1="2215.6" y1="1467.4" x2="2215.6" y2="1534.3"/>
			<path class="st6" d="M2116.5,1488.6"/>
			<path class="st6" d="M2165.8,1517.5c-30.9,0-45.9-15.8-45.9-34c-5.5-3-17.1-8.1-17.1-8.1s23-25.3,23-45.9"/>
			<circle class="st6" cx="2147.2" cy="1449.2" r="17.8"/>
			<g>
				<line class="st6" x1="2164.2" y1="1443.7" x2="2207.1" y2="1443.7"/>
			</g>
			<path class="st14" d="M2236.2,1407.5v73.9l-29.1,14.1v-36.7c1.4,1,3.2,1.6,5.1,1.6c4.8,0,8.7-3.9,8.7-8.7c0-4.8-3.9-8.7-8.7-8.7
				c-1.9,0-3.7,0.6-5.1,1.6V1405l-107.7,17.7c0-36.5,29.6-66.1,66.1-66.1c28,0,52,17.4,61.6,42
				C2229.9,1406.1,2236.2,1407.5,2236.2,1407.5z"/>
			<g>
				<path class="st6" d="M2179.5,1549.3"/>
			</g>
			<circle class="st10" cx="2140.8" cy="1447" r="3.4"/>
		</g>
	</g>
	<g>
		<line class="st22" x1="2138.5" y1="573.7" x2="2138.5" y2="819.3"/>
		<line class="st22" x1="2190" y1="573.7" x2="2190" y2="819.3"/>
		<circle class="st10" cx="2138.5" cy="631.5" r="14.1"/>
		<circle class="st10" cx="2190" cy="714" r="14.1"/>
	</g>
	<g>
		<path class="st6" d="M1617.7,285.4h698.9"/>
		<path class="st6" d="M2316.6,374.3H2240V196.2h76.6"/>
		<path class="st10" d="M2337.9,216.2c11.9,0,21.6-9,21.6-20.2s-9.6-20.2-21.6-20.2s-21.6,9-21.6,20.2
			C2316.6,207.4,2326.3,216.2,2337.9,216.2z"/>
		<path class="st14" d="M2337.9,305.3c11.9,0,21.6-9,21.6-20c0-11.2-9.6-20.2-21.6-20.2s-21.6,9-21.6,20.2
			C2316.6,296.3,2326.3,305.3,2337.9,305.3z"/>
		<path class="st10" d="M2337.9,394.5c11.9,0,21.6-9,21.6-20.2c0-11.2-9.6-20.2-21.6-20.2s-21.6,9-21.6,20.2
			C2316.6,385.5,2326.3,394.5,2337.9,394.5z"/>
	</g>
	<g>
		<path class="st7" d="M258.5,287.5l-17.8,16.2L207.9,283l-37.3,30.5c0,0-26.2,19.3-26.2,34.3c26.2,0,177.2,0,177.2,0
			c0-17.7-21.3-30.9-21.3-30.9L258.5,287.5z"/>
		<path class="st14" d="M242.3,303.5l-45.1,43.4l-52.8,0.9c0,0-0.2-10.6,11.2-21s52.3-43.8,52.3-43.8L242.3,303.5z"/>
	</g>
	<g>
		<path class="st7" d="M2165.3,1528.7l17.8,16.2l32.8-20.8l37.3,30.5c0,0,26.2,19.3,26.2,34.3c-26.2,0-177.2,0-177.2,0
			c0-17.7,21.3-30.9,21.3-30.9L2165.3,1528.7z"/>
		<path class="st14" d="M2181.5,1544.7l45.1,43.4l52.8,0.9c0,0,0.2-10.6-11.2-21c-11.4-10.4-52.3-43.8-52.3-43.8L2181.5,1544.7z"/>
	</g>
</g>
</svg>
