<svg width="991" height="683" viewBox="0 0 991 683" fill="none" xmlns="http://www.w3.org/2000/svg">
<g clip-path="url(#clip0)">
<path d="M958.802 410.856C959.702 410.858 960.583 410.593 961.332 410.095C962.081 409.596 962.666 408.887 963.011 408.056C963.357 407.225 963.448 406.31 963.273 405.427C963.098 404.544 962.665 403.733 962.028 403.097C961.392 402.46 960.581 402.027 959.698 401.852C958.815 401.677 957.901 401.768 957.07 402.114C956.239 402.459 955.529 403.044 955.03 403.793C954.532 404.542 954.267 405.423 954.269 406.323C954.269 407.525 954.747 408.678 955.597 409.528C956.447 410.378 957.6 410.856 958.802 410.856Z" stroke="white" stroke-width="1.01941" stroke-miterlimit="10"/>
<path d="M971.054 410.856C971.954 410.858 972.834 410.593 973.584 410.095C974.333 409.596 974.917 408.887 975.263 408.056C975.608 407.225 975.699 406.31 975.524 405.427C975.349 404.544 974.916 403.733 974.28 403.097C973.643 402.46 972.832 402.027 971.95 401.852C971.067 401.677 970.152 401.768 969.321 402.114C968.49 402.459 967.78 403.044 967.282 403.793C966.783 404.542 966.518 405.423 966.521 406.323C966.521 407.525 966.998 408.678 967.848 409.528C968.699 410.378 969.852 410.856 971.054 410.856Z" stroke="white" stroke-width="1.01941" stroke-miterlimit="10"/>
<path d="M983.175 415.064C982.53 425.61 974.669 433.937 965.078 433.937C955.486 433.937 947.565 425.586 946.969 414.957C946.969 414.527 946.969 414.086 946.969 413.657C946.954 410.555 947.597 407.485 948.854 404.65C948.854 404.411 948.854 404.161 948.854 403.91C948.856 402.616 949.012 401.327 949.319 400.069C950.18 396.562 952.192 393.444 955.034 391.216C957.876 388.987 961.383 387.776 964.994 387.776C968.606 387.776 972.113 388.987 974.954 391.216C977.796 393.444 979.809 396.562 980.669 400.069V400.069" stroke="white" stroke-width="1.01941" stroke-miterlimit="10"/>
<path d="M976.351 419.875C973.426 422.797 969.493 424.485 965.361 424.594C961.229 424.703 957.212 423.223 954.138 420.46" stroke="white" stroke-width="1.01941" stroke-miterlimit="10"/>
<path d="M962.405 415.792C962.617 415.792 962.825 415.729 963.001 415.611C963.178 415.493 963.316 415.325 963.397 415.129C963.478 414.933 963.499 414.717 963.458 414.509C963.417 414.3 963.314 414.109 963.164 413.959C963.014 413.809 962.823 413.707 962.614 413.665C962.406 413.624 962.19 413.645 961.994 413.726C961.798 413.808 961.63 413.945 961.512 414.122C961.394 414.298 961.331 414.506 961.331 414.718C961.33 414.86 961.356 415 961.41 415.131C961.463 415.262 961.542 415.381 961.642 415.481C961.742 415.581 961.861 415.66 961.992 415.713C962.123 415.767 962.263 415.793 962.405 415.792Z" fill="white"/>
<path d="M967.738 415.792C967.951 415.794 968.159 415.733 968.338 415.617C968.516 415.5 968.655 415.333 968.738 415.137C968.821 414.941 968.844 414.725 968.804 414.516C968.764 414.307 968.663 414.115 968.513 413.963C968.364 413.812 968.172 413.708 967.964 413.666C967.755 413.624 967.539 413.644 967.342 413.725C967.145 413.806 966.976 413.944 966.858 414.12C966.739 414.297 966.676 414.505 966.676 414.718C966.676 415.001 966.788 415.272 966.986 415.473C967.185 415.674 967.455 415.789 967.738 415.792Z" fill="white"/>
<path d="M959.125 407.503C959.337 407.503 959.545 407.441 959.721 407.323C959.898 407.205 960.035 407.037 960.117 406.841C960.198 406.645 960.219 406.429 960.178 406.22C960.136 406.012 960.034 405.821 959.884 405.671C959.734 405.521 959.543 405.418 959.334 405.377C959.126 405.335 958.91 405.357 958.714 405.438C958.518 405.519 958.35 405.657 958.232 405.833C958.114 406.01 958.051 406.217 958.051 406.43C958.049 406.571 958.076 406.712 958.13 406.843C958.183 406.974 958.262 407.093 958.362 407.193C958.462 407.293 958.581 407.372 958.712 407.425C958.843 407.478 958.983 407.505 959.125 407.503Z" fill="white"/>
<path d="M970.911 407.503C971.124 407.506 971.332 407.445 971.511 407.328C971.689 407.212 971.828 407.045 971.911 406.849C971.994 406.653 972.017 406.437 971.977 406.228C971.937 406.019 971.836 405.826 971.686 405.675C971.537 405.524 971.345 405.42 971.137 405.378C970.928 405.335 970.712 405.356 970.515 405.437C970.318 405.518 970.149 405.655 970.031 405.832C969.912 406.009 969.849 406.217 969.849 406.43C969.849 406.712 969.961 406.984 970.159 407.185C970.358 407.386 970.628 407.5 970.911 407.503Z" fill="white"/>
<path d="M948.817 404.654C947.556 407.488 946.91 410.558 946.92 413.66C946.92 414.09 946.92 414.531 946.92 414.961C945.307 414.304 943.963 413.123 943.104 411.608C942.245 410.094 941.922 408.333 942.186 406.612C942.451 404.891 943.289 403.309 944.563 402.123C945.838 400.936 947.475 400.214 949.211 400.073C948.899 401.329 948.742 402.619 948.746 403.914C948.793 404.165 948.793 404.415 948.817 404.654Z" stroke="white" stroke-width="1.01941" stroke-miterlimit="10"/>
<path d="M988.28 407.791C988.281 409.382 987.791 410.935 986.878 412.237C985.964 413.539 984.671 414.528 983.174 415.068C983.174 414.603 983.174 414.138 983.174 413.661C983.188 410.359 982.458 407.098 981.039 404.117V403.926C981.042 402.624 980.886 401.326 980.573 400.061C982.62 400.067 984.58 400.885 986.024 402.334C987.469 403.783 988.28 405.745 988.28 407.791V407.791Z" stroke="white" stroke-width="1.01941" stroke-miterlimit="10"/>
<path d="M953.482 392.565C954.382 391.587 955.556 390.904 956.851 390.604C958.145 390.305 959.5 390.403 960.738 390.887C961.976 391.37 963.039 392.216 963.787 393.314C964.536 394.412 964.936 395.71 964.935 397.039" stroke="white" stroke-width="1.01941" stroke-miterlimit="10"/>
<path d="M964.934 397.038C964.936 395.735 965.322 394.462 966.044 393.378C966.767 392.294 967.793 391.447 968.995 390.945C970.198 390.443 971.521 390.307 972.8 390.555C974.079 390.803 975.256 391.423 976.184 392.338" stroke="white" stroke-width="1.01941" stroke-miterlimit="10"/>
<path d="M936.674 412.286H932.88C928.025 412.286 927.918 408.338 927.918 403.471V400.071C927.918 395.215 928.025 391.255 932.88 391.255H936.734" stroke="#4FACDF" stroke-width="1.01941" stroke-miterlimit="10"/>
<path d="M990.988 400.918C990.988 400.918 991.787 386.866 964.421 386.866C938.976 386.866 940.097 400.751 940.097 400.751L941.517 422.356C941.755 422.582 940.837 421.425 940.55 420.96L940.455 420.852C940.121 420.328 939.763 419.815 939.465 419.266C936.475 414.179 934.913 408.381 934.944 402.481C934.944 384.873 948.412 370.63 965.077 370.63C981.743 370.63 995.199 384.873 995.199 402.481C995.199 408.661 993.266 415.675 990.666 419.29L990.988 400.918Z" stroke="#4FACDF" stroke-width="1.01941" stroke-miterlimit="10"/>
<path d="M913.936 333.422V456.295H1014" stroke="white" stroke-width="1.01941" stroke-miterlimit="10"/>
<path d="M792.173 228.273V153.881" stroke="white" stroke-width="1.01941" stroke-miterlimit="10"/>
<path d="M286.473 177.719L300.168 207.328C300.382 207.791 300.476 208.3 300.442 208.809C300.407 209.318 300.245 209.81 299.971 210.24C299.696 210.67 299.318 211.025 298.871 211.27C298.424 211.516 297.922 211.645 297.412 211.646H288.692V219.173C288.692 223.094 287.134 226.853 284.363 229.625C281.591 232.397 277.831 233.954 273.911 233.954H260.55" stroke="white" stroke-width="1.01941" stroke-miterlimit="10"/>
<path d="M226.754 184.065V202.675H217.008V206.147C217.008 209.785 218.453 213.275 221.026 215.847C223.599 218.42 227.088 219.866 230.727 219.866H238.075V194.969H238.242C240.95 194.969 243.548 193.893 245.463 191.978C247.378 190.063 248.454 187.466 248.454 184.757V184.065" stroke="white" stroke-width="1.01941" stroke-miterlimit="10"/>
<path d="M234.02 219.415V237.309L207.131 259.51C203.085 262.859 200.407 267.574 199.603 272.763H264.905" stroke="white" stroke-width="1.01941" stroke-miterlimit="10"/>
<path d="M260.86 236.938L290.958 259.759C295.122 262.923 297.894 267.581 298.688 272.75H233.387" stroke="white" stroke-width="1.01941" stroke-miterlimit="10"/>
<path d="M260.86 272.749V240.241" stroke="white" stroke-width="1.01941" stroke-miterlimit="10"/>
<path d="M254.371 245.444L234.091 236.354L223.724 245.444H254.371Z" fill="white"/>
<path d="M272.456 245.441L260.18 235.48V245.441H272.456Z" fill="white"/>
<path d="M228.925 168.77H278.361V168.329H287.033C287.516 168.333 287.993 168.426 288.441 168.603C289.099 168.882 289.661 169.349 290.056 169.945C290.45 170.541 290.66 171.241 290.66 171.956V185.257H225.943V171.896C225.94 171.249 226.113 170.613 226.443 170.057C226.773 169.5 227.247 169.043 227.816 168.735L228.925 168.77Z" fill="#72AD55"/>
<path d="M228.914 169.747H288.441C288.441 169.377 288.441 168.996 288.441 168.626C287.936 161.193 284.667 154.219 279.278 149.075C273.889 143.931 266.77 140.991 259.321 140.832C251.873 140.674 244.635 143.309 239.032 148.218C233.429 153.128 229.866 159.957 229.045 167.361H278.385V168.697H228.926C228.926 169.067 228.914 169.389 228.914 169.747Z" fill="#72AD55"/>
<path d="M258.928 145.507C259.664 145.507 260.383 145.289 260.995 144.88C261.608 144.471 262.085 143.89 262.366 143.21C262.648 142.53 262.722 141.781 262.578 141.059C262.434 140.337 262.08 139.674 261.559 139.154C261.039 138.633 260.376 138.279 259.654 138.135C258.932 137.991 258.183 138.065 257.503 138.347C256.823 138.629 256.242 139.106 255.833 139.718C255.424 140.33 255.206 141.049 255.206 141.785C255.206 142.773 255.598 143.719 256.296 144.417C256.994 145.115 257.941 145.507 258.928 145.507Z" fill="#72AD55"/>
<path d="M277.657 196.617C278.047 196.619 278.428 196.506 278.754 196.291C279.079 196.076 279.333 195.77 279.484 195.41C279.635 195.051 279.675 194.654 279.601 194.272C279.526 193.889 279.34 193.537 279.065 193.261C278.79 192.984 278.439 192.796 278.057 192.719C277.675 192.642 277.279 192.68 276.918 192.829C276.558 192.977 276.25 193.23 276.033 193.554C275.816 193.878 275.7 194.259 275.7 194.648C275.7 195.168 275.906 195.667 276.273 196.036C276.639 196.405 277.137 196.614 277.657 196.617Z" fill="white"/>
<path d="M792.173 472.053V558.827H629.145C628.274 552.876 628.694 546.808 630.375 541.033C632.057 535.259 634.962 529.914 638.892 525.362C642.822 520.809 647.686 517.156 653.153 514.649C658.62 512.143 664.562 510.842 670.576 510.835C672.657 510.832 674.735 510.988 676.791 511.3C677.324 503.703 679.919 496.394 684.296 490.162C688.674 483.929 694.668 479.008 701.635 475.93C708.601 472.851 716.275 471.73 723.831 472.689C731.387 473.647 738.538 476.649 744.515 481.369C750.51 475.064 758.319 470.779 766.858 469.11C775.397 467.441 784.244 468.469 792.173 472.053V472.053Z" stroke="white" stroke-width="1.01941" stroke-miterlimit="10"/>
<path d="M585.042 555.166C585.042 556.359 584.983 557.623 584.875 558.828H423.745V492.489C427.568 487.902 432.327 484.186 437.704 481.59C443.08 478.993 448.95 477.575 454.919 477.432C460.888 477.288 466.818 478.422 472.313 480.758C477.808 483.093 482.741 486.576 486.78 490.974C492.76 487.827 499.419 486.188 506.177 486.202C514.7 486.205 523.019 488.807 530.025 493.66C537.031 498.513 542.39 505.387 545.389 513.365C556.094 513.93 566.174 518.581 573.552 526.358C580.929 534.135 585.042 544.446 585.042 555.166V555.166Z" stroke="white" stroke-width="1.01941" stroke-miterlimit="10"/>
<path d="M681.814 412.229V439.857" stroke="#4FACDF" stroke-width="1.01941" stroke-miterlimit="10"/>
<path d="M536.656 412.229V439.857" stroke="#4FACDF" stroke-width="1.01941" stroke-miterlimit="10"/>
<path d="M690.832 412.229V432.413" stroke="#4FACDF" stroke-width="1.01941" stroke-miterlimit="10"/>
<path d="M528.091 412.229V432.413" stroke="#4FACDF" stroke-width="1.01941" stroke-miterlimit="10"/>
<path d="M619.422 420.445H592.665L586.318 436.073H625.769L619.422 420.445Z" stroke="white" stroke-width="1.01941" stroke-miterlimit="10"/>
<path d="M4.13919 558.913H424.186V628.02" stroke="white" stroke-width="1.01941" stroke-miterlimit="10"/>
<path d="M913.936 228.277H792.173V333.423H913.936V228.277Z" stroke="white" stroke-width="1.01941" stroke-miterlimit="10"/>
<path d="M423.745 333.422V558.888H792.173V333.422" stroke="white" stroke-width="1.01941" stroke-miterlimit="10"/>
<path d="M530.859 333.422H423.745" stroke="white" stroke-width="1.01941" stroke-miterlimit="10" stroke-linecap="square"/>
<path d="M792.113 333.422H687.134" stroke="white" stroke-width="1.01941" stroke-miterlimit="10" stroke-linecap="square"/>
<path d="M519.061 277.176H505.604" stroke="white" stroke-width="1.01941" stroke-miterlimit="10"/>
<path d="M512.332 270.445V283.89" stroke="white" stroke-width="1.01941" stroke-miterlimit="10"/>
<path d="M768.444 175.713H754.988" stroke="white" stroke-width="1.01941" stroke-miterlimit="10"/>
<path d="M761.717 168.998V182.467" stroke="white" stroke-width="1.01941" stroke-miterlimit="10"/>
<path d="M710.826 227.926H697.381" stroke="#F2BA44" stroke-width="1.01941" stroke-miterlimit="10"/>
<path d="M704.109 221.206V234.65" stroke="#F2BA44" stroke-width="1.01941" stroke-miterlimit="10"/>
<path d="M690.296 151.38H676.839" stroke="#4FACDF" stroke-width="1.01941" stroke-miterlimit="10"/>
<path d="M683.555 144.699V158.143" stroke="#4FACDF" stroke-width="1.01941" stroke-miterlimit="10"/>
<path d="M668.297 96.6223H654.841" stroke="white" stroke-width="1.01941" stroke-miterlimit="10"/>
<path d="M661.57 89.897V103.341" stroke="white" stroke-width="1.01941" stroke-miterlimit="10"/>
<path d="M471.212 208.747H457.732" stroke="#F2BA44" stroke-width="1.01941" stroke-miterlimit="10"/>
<path d="M464.508 202.02V215.489" stroke="#F2BA44" stroke-width="1.01941" stroke-miterlimit="10"/>
<path d="M480.672 95.1763H467.227" stroke="#4FACDF" stroke-width="1.01941" stroke-miterlimit="10"/>
<path d="M473.944 88.4514V101.896" stroke="#4FACDF" stroke-width="1.01941" stroke-miterlimit="10"/>
<path d="M745.97 107.714H732.466" stroke="#4FACDF" stroke-width="1.01941" stroke-miterlimit="10"/>
<path d="M739.242 100.989V114.434" stroke="#4FACDF" stroke-width="1.01941" stroke-miterlimit="10"/>
<path d="M574.234 111.665H560.778" stroke="#F2BA44" stroke-width="1.01941" stroke-miterlimit="10"/>
<path d="M567.506 104.938V118.383" stroke="#F2BA44" stroke-width="1.01941" stroke-miterlimit="10"/>
<path d="M544.638 216.155H531.193" stroke="#4FACDF" stroke-width="1.01941" stroke-miterlimit="10"/>
<path d="M537.909 209.428V222.873" stroke="#4FACDF" stroke-width="1.01941" stroke-miterlimit="10"/>
<path d="M534.056 149.708H520.6" stroke="white" stroke-width="1.01941" stroke-miterlimit="10"/>
<path d="M527.28 142.98V156.425" stroke="white" stroke-width="1.01941" stroke-miterlimit="10"/>
<path d="M990.989 400.917L990.666 419.24C989.928 420.634 989.027 421.935 987.982 423.117C985.27 426.611 981.796 429.437 977.824 431.382C973.852 433.327 969.488 434.338 965.066 434.338C960.644 434.338 956.28 433.327 952.308 431.382C948.336 429.437 944.862 426.611 942.149 423.117C941.935 422.867 941.732 422.593 941.517 422.342L940.098 400.738C940.098 400.738 938.905 386.852 964.422 386.852C991.788 386.864 990.989 400.917 990.989 400.917Z" stroke="#4FACDF" stroke-width="1.01941" stroke-miterlimit="10"/>
<path d="M939.465 419.268L940.455 420.855C940.476 420.896 940.504 420.932 940.539 420.962C940.861 421.451 941.195 421.917 941.517 422.358" stroke="#4FACDF" stroke-width="1.01941" stroke-miterlimit="10"/>
<path d="M995.724 428.033C995.724 436.384 982.149 443.172 965.412 443.172C948.675 443.172 935.135 436.384 935.135 428.033C935.135 424.383 937.795 423.261 942.149 423.154C944.863 426.645 948.338 429.47 952.309 431.413C956.281 433.357 960.644 434.367 965.066 434.367C969.487 434.367 973.85 433.357 977.822 431.413C981.793 429.47 985.269 426.645 987.982 423.154C992.801 423.094 995.724 424.108 995.724 428.033Z" stroke="#4FACDF" stroke-width="1.01941" stroke-miterlimit="10"/>
<path d="M879.628 251.896V302.167H833.926C835.138 302.165 836.338 302.403 837.459 302.865C838.579 303.328 839.597 304.007 840.454 304.864C841.312 305.72 841.992 306.737 842.456 307.857C842.92 308.976 843.159 310.176 843.159 311.388C843.159 313.941 842.133 318.725 840.475 320.383L833.926 320.622C832.712 320.622 831.511 320.383 830.39 319.918C829.269 319.453 828.25 318.772 827.393 317.913C826.535 317.054 825.855 316.035 825.392 314.914C824.929 313.792 824.691 312.59 824.693 311.376V242.651H870.382C872.834 242.651 875.186 243.625 876.92 245.359C878.654 247.093 879.628 249.444 879.628 251.896V251.896Z" stroke="white" stroke-width="1.01941" stroke-miterlimit="10"/>
<path d="M846.988 265.089L840.785 273.63L846.988 282.16" stroke="#4FACDD" stroke-width="1.01941" stroke-miterlimit="10"/>
<path d="M858.369 282.532L864.573 273.967L858.369 265.437" stroke="#4FACDD" stroke-width="1.01941" stroke-miterlimit="10"/>
<path d="M856.054 265.365L849.648 282.365" stroke="#4FACDD" stroke-width="1.01941" stroke-miterlimit="10"/>
<path d="M893.847 311.422C893.847 312.637 893.607 313.84 893.142 314.963C892.677 316.085 891.995 317.105 891.135 317.964C890.275 318.822 889.255 319.503 888.131 319.967C887.008 320.431 885.805 320.669 884.59 320.667H833.926C835.165 320.712 836.401 320.506 837.56 320.063C838.718 319.619 839.775 318.946 840.668 318.085C841.561 317.224 842.271 316.192 842.756 315.05C843.241 313.908 843.491 312.68 843.491 311.44C843.491 310.199 843.241 308.972 842.756 307.83C842.271 306.688 841.561 305.656 840.668 304.795C839.775 303.933 838.718 303.261 837.56 302.817C836.401 302.374 835.165 302.168 833.926 302.213H884.59C885.804 302.205 887.007 302.437 888.131 302.897C889.254 303.356 890.276 304.033 891.136 304.889C891.997 305.746 892.679 306.764 893.145 307.885C893.61 309.006 893.849 310.208 893.847 311.422Z" fill="white"/>
<path d="M423.745 333.421V166.577H332.485" stroke="white" stroke-width="1.01941" stroke-miterlimit="10"/>
<path d="M626.831 446.788L656.44 513.318" stroke="white" stroke-width="1.01941" stroke-miterlimit="10"/>
<path d="M626.402 463.215L644.189 510.253" stroke="#4FACDF" stroke-width="1.01941" stroke-miterlimit="10"/>
<path d="M590.327 456.767L569.57 502.576" stroke="#4FACDF" stroke-width="1.01941" stroke-miterlimit="10"/>
<path d="M583.885 446.788L553.406 514.308" stroke="white" stroke-width="1.01941" stroke-miterlimit="10"/>
<path d="M664.599 327.062C670.036 327.058 675.421 328.126 680.445 330.205C685.469 332.283 690.035 335.33 693.881 339.173C697.727 343.016 700.779 347.579 702.861 352.602C704.944 357.624 706.016 363.008 706.018 368.445V399.652H664.599V327.062Z" stroke="white" stroke-width="1.01941" stroke-miterlimit="10"/>
<path d="M553.155 327.062C542.18 327.065 531.656 331.426 523.896 339.186C516.136 346.946 511.775 357.47 511.772 368.445V399.652H553.179L553.155 327.062Z" stroke="white" stroke-width="1.01941" stroke-miterlimit="10"/>
<path d="M654.519 227.488V414.47H563.247V227.488L590.506 162.222C592.019 158.613 594.565 155.531 597.824 153.364C601.083 151.196 604.909 150.04 608.823 150.04C612.737 150.04 616.564 151.196 619.823 153.364C623.082 155.531 625.628 158.613 627.141 162.222L654.519 227.488Z" stroke="white" stroke-width="1.01941" stroke-miterlimit="10"/>
<path d="M431.534 503.236C433.402 498.29 436.692 494.007 440.989 490.927C445.286 487.847 450.398 486.106 455.682 485.925C460.966 485.744 466.185 487.13 470.683 489.909C475.181 492.688 478.756 496.736 480.958 501.542" stroke="#4FACDF" stroke-width="1.01941" stroke-miterlimit="10"/>
<path d="M643.687 552.794C642.731 547.594 643.335 542.227 645.422 537.37C647.51 532.512 650.988 528.381 655.419 525.496C659.85 522.611 665.035 521.101 670.322 521.157C675.609 521.213 680.761 522.832 685.13 525.81" stroke="#4FACDF" stroke-width="1.01941" stroke-miterlimit="10"/>
<path d="M751.088 490.854C753.008 482.79 760.261 476.11 769.757 474.595C778.728 473.175 787.21 476.754 791.791 483.076" stroke="#4FACDF" stroke-width="1.01941" stroke-miterlimit="10"/>
<path d="M537.742 523.324C545.544 519.829 556.65 521.893 565.597 529.289C574.055 536.244 578.219 545.99 577.062 554.067" stroke="#4FACDF" stroke-width="1.01941" stroke-miterlimit="10"/>
<path d="M252.367 305.016C270.692 305.004 288.603 299.559 303.834 289.37C319.065 279.18 330.933 264.703 337.938 247.769C344.943 230.836 346.769 212.205 343.187 194.233C339.604 176.261 330.774 159.755 317.812 146.801C304.85 133.848 288.338 125.028 270.364 121.457C252.39 117.886 233.76 119.725 216.831 126.74C199.902 133.756 185.432 145.633 175.253 160.871C165.073 176.109 159.639 194.023 159.639 212.348C159.642 224.522 162.043 236.575 166.705 247.821C171.367 259.066 178.198 269.283 186.809 277.888C195.42 286.494 205.641 293.318 216.89 297.973C228.138 302.627 240.193 305.021 252.367 305.016Z" stroke="white" stroke-width="1.01941" stroke-miterlimit="10"/>
<path d="M640.072 256.929C639.977 256.929 639.905 256.929 639.905 256.834C639.905 256.738 639.727 256.738 639.524 256.738C639.133 256.645 638.732 256.609 638.331 256.631C638.139 256.645 637.947 256.612 637.77 256.536H637.663C636.585 256.437 635.516 256.258 634.466 255.999C634.319 255.94 634.186 255.853 634.073 255.742C633.96 255.632 633.871 255.5 633.81 255.355L633.046 255.188C633.39 252.51 633.261 249.792 632.664 247.159C631.993 244.497 630.876 241.968 629.36 239.679L629.921 239.131V239.035C629.918 238.74 630.02 238.453 630.207 238.224C631.019 237.527 631.902 236.92 632.843 236.411L633.404 236.136C633.786 235.969 634.06 235.766 634.442 235.599C634.532 235.535 634.628 235.479 634.728 235.432C634.824 235.349 634.728 235.325 634.728 235.254C635.035 235.046 635.268 234.747 635.393 234.398C635.518 234.05 635.529 233.671 635.424 233.316C635.319 232.961 635.103 232.648 634.809 232.424C634.514 232.2 634.156 232.075 633.786 232.068C633.305 232.07 632.838 232.234 632.461 232.534L632.366 232.629C632.259 232.724 632.187 232.796 632.08 232.796C631.809 233.051 631.555 233.322 631.316 233.607C631.214 233.754 631.085 233.88 630.935 233.977C630.233 234.753 629.43 235.431 628.549 235.993C628.377 236.092 628.185 236.149 627.988 236.16C627.857 236.175 627.726 236.141 627.618 236.065H627.511L626.747 236.53C625.984 235.79 625.149 235.087 624.361 234.347C620.787 231.665 616.545 230.014 612.098 229.575L611.991 228.836V228.931C611.752 228.751 611.583 228.494 611.513 228.203C611.486 227.166 611.546 226.129 611.692 225.102V225.006C611.692 224.839 611.788 224.636 611.788 224.469C611.895 224.1 611.895 223.73 611.967 223.36V222.823C611.997 222.36 611.848 221.904 611.55 221.548C611.253 221.193 610.829 220.966 610.368 220.914C610.07 220.88 609.769 220.92 609.49 221.031C609.211 221.141 608.964 221.318 608.77 221.547C608.593 221.709 608.453 221.907 608.356 222.126C608.26 222.346 608.21 222.583 608.209 222.823V223.288C608.234 223.663 608.294 224.034 608.388 224.398C608.465 224.566 608.498 224.75 608.483 224.935V225.03C608.634 226.057 608.694 227.095 608.662 228.132C608.601 228.426 608.43 228.686 608.185 228.859V229.038L608.078 229.766C607.04 229.873 606.002 230.04 604.881 230.243C600.464 231.164 596.422 233.382 593.273 236.613L592.713 236.256H592.617C592.51 236.256 592.438 236.351 592.236 236.351C592.038 236.333 591.846 236.272 591.675 236.172C590.824 235.547 590.026 234.853 589.289 234.096C589.184 233.952 589.055 233.827 588.907 233.727C588.633 233.452 588.43 233.178 588.144 232.915C588.048 232.82 587.965 232.82 587.869 232.736L587.762 232.641C587.384 232.353 586.925 232.19 586.45 232.176C586.191 232.15 585.93 232.197 585.697 232.311C585.463 232.425 585.265 232.601 585.126 232.82C584.861 233.217 584.753 233.698 584.824 234.17C584.894 234.642 585.138 235.071 585.507 235.373C585.52 235.373 585.532 235.375 585.544 235.38C585.555 235.385 585.566 235.392 585.575 235.401C585.584 235.41 585.591 235.42 585.596 235.432C585.6 235.443 585.603 235.456 585.603 235.468C585.603 235.468 585.782 235.635 585.889 235.635C586.221 235.841 586.568 236.02 586.927 236.172C587.106 236.279 587.309 236.351 587.488 236.446C588.431 236.95 589.316 237.559 590.124 238.26C590.234 238.361 590.318 238.488 590.368 238.63C590.418 238.771 590.432 238.923 590.41 239.071V238.976L590.959 239.512C590.864 239.691 590.792 239.787 590.685 239.978C587.757 244.373 586.578 249.705 587.38 254.925L586.617 255.104C586.617 255.117 586.614 255.129 586.61 255.141C586.605 255.152 586.598 255.163 586.589 255.172C586.58 255.18 586.569 255.187 586.558 255.192C586.546 255.197 586.534 255.2 586.521 255.2C586.373 255.476 586.144 255.7 585.865 255.844C584.814 256.121 583.74 256.301 582.656 256.381C582.464 256.367 582.272 256.399 582.096 256.476C581.726 256.476 581.344 256.571 580.962 256.571C580.855 256.571 580.783 256.679 580.58 256.679C580.378 256.679 580.473 256.679 580.402 256.774C580.175 256.792 579.953 256.855 579.751 256.959C579.549 257.064 579.37 257.209 579.225 257.384C579.08 257.56 578.972 257.762 578.907 257.981C578.842 258.199 578.822 258.428 578.848 258.654C578.873 258.88 578.944 259.099 579.056 259.297C579.169 259.495 579.319 259.669 579.5 259.808C579.681 259.946 579.888 260.047 580.108 260.104C580.329 260.16 580.558 260.172 580.783 260.138C580.95 260.152 581.116 260.115 581.26 260.031C581.368 260.031 581.368 260.031 581.368 259.935C581.368 259.84 581.642 259.935 581.75 259.935C582.103 259.835 582.45 259.711 582.787 259.566C582.959 259.467 583.151 259.41 583.348 259.399H583.444C584.455 259.022 585.502 258.751 586.569 258.587H586.676C586.955 258.587 587.225 258.684 587.44 258.862C587.465 258.862 587.49 258.872 587.507 258.89C587.525 258.908 587.535 258.932 587.535 258.957L588.37 258.862C589.807 263.144 592.511 266.889 596.125 269.598C596.918 270.225 597.769 270.776 598.665 271.245L598.176 271.877C598.176 271.972 598.284 271.972 598.284 271.972C598.363 272.108 598.412 272.259 598.429 272.415C598.445 272.572 598.428 272.73 598.379 272.879C597.962 273.808 597.463 274.698 596.888 275.539V275.635C596.781 275.805 596.653 275.961 596.506 276.1C596.268 276.39 596.045 276.693 595.838 277.006C595.743 277.102 595.743 277.173 595.659 277.281C595.659 277.306 595.649 277.33 595.631 277.348C595.613 277.366 595.589 277.376 595.564 277.376C595.45 277.587 595.38 277.819 595.357 278.057C595.333 278.296 595.358 278.537 595.429 278.765C595.5 278.994 595.616 279.207 595.771 279.39C595.925 279.574 596.114 279.724 596.327 279.834C596.532 279.934 596.756 279.99 596.983 280.001C597.353 279.988 597.713 279.881 598.028 279.688C598.344 279.496 598.604 279.226 598.785 278.903C598.785 278.875 598.796 278.847 598.816 278.827C598.836 278.807 598.864 278.796 598.892 278.796C598.892 278.7 598.988 278.629 599.071 278.533C599.167 278.164 599.345 277.889 599.453 277.519L599.62 276.983C599.924 276.004 600.324 275.057 600.813 274.155C600.997 273.893 601.267 273.703 601.576 273.619C601.672 273.619 601.672 273.619 601.672 273.523L602.053 272.783C604.677 273.766 607.459 274.259 610.261 274.239C612.051 274.251 613.833 274.014 615.558 273.535C616.579 273.327 617.587 273.056 618.576 272.724L618.957 273.368C619.053 273.368 619.053 273.368 619.053 273.463C619.357 273.558 619.624 273.746 619.816 274C620.317 274.896 620.717 275.844 621.009 276.828V276.923L621.188 277.46C621.247 277.818 621.373 278.162 621.558 278.474C621.665 278.569 621.665 278.641 621.737 278.736C621.737 278.765 621.748 278.792 621.768 278.812C621.789 278.832 621.816 278.844 621.844 278.844C622.025 279.166 622.285 279.437 622.601 279.629C622.917 279.821 623.276 279.929 623.646 279.941C623.906 279.919 624.163 279.862 624.409 279.774C624.619 279.683 624.804 279.544 624.949 279.368C625.094 279.191 625.195 278.983 625.244 278.76C625.367 278.305 625.334 277.822 625.149 277.388C625.149 277.293 625.041 277.293 625.041 277.293C625.041 277.293 624.946 277.114 624.862 277.018C624.699 276.68 624.477 276.373 624.206 276.112C624.103 275.939 623.974 275.782 623.825 275.647V275.48C623.189 274.676 622.682 273.779 622.321 272.819C622.266 272.67 622.247 272.511 622.266 272.353C622.285 272.195 622.34 272.044 622.429 271.913C622.429 271.887 622.439 271.863 622.457 271.845C622.475 271.827 622.499 271.817 622.524 271.817L622.25 271.078C627.043 268.326 630.667 263.918 632.438 258.683L633.189 258.778C633.203 258.78 633.216 258.779 633.229 258.775C633.242 258.771 633.254 258.764 633.265 258.755C633.275 258.746 633.283 258.735 633.288 258.722C633.294 258.71 633.297 258.696 633.297 258.683C633.513 258.509 633.783 258.417 634.06 258.42H634.156C635.189 258.593 636.204 258.865 637.186 259.232H637.281C637.452 259.33 637.644 259.388 637.842 259.399C638.174 259.583 638.521 259.739 638.88 259.864C638.987 259.864 639.058 259.959 639.261 259.959C639.464 259.959 639.369 259.959 639.44 260.055C639.587 260.144 639.759 260.181 639.929 260.162C640.333 260.158 640.726 260.035 641.059 259.808C641.393 259.581 641.651 259.26 641.802 258.886C641.758 258.419 641.566 257.978 641.256 257.626C640.945 257.275 640.531 257.031 640.072 256.929ZM612.802 254.102L610.261 255.295L607.72 254.102L607.064 251.454L608.865 249.271H611.68L613.482 251.454L612.802 254.102ZM628.191 248.137C628.65 250.017 628.779 251.963 628.572 253.887L619.602 251.43C619.407 251.388 619.222 251.307 619.059 251.192C618.896 251.078 618.758 250.932 618.652 250.763C618.546 250.594 618.476 250.405 618.444 250.208C618.413 250.011 618.421 249.81 618.468 249.617C618.532 249.37 618.665 249.147 618.85 248.972L625.936 242.769C626.96 244.44 627.721 246.259 628.191 248.161V248.137ZM623.085 239.405L615.343 244.678C615.008 244.871 614.616 244.941 614.234 244.876C613.853 244.81 613.507 244.614 613.255 244.32C613.166 244.238 613.096 244.139 613.048 244.027C613.001 243.916 612.978 243.796 612.981 243.676L612.42 234.466C616.431 234.877 620.188 236.625 623.085 239.429V239.405ZM606.014 234.764L607.899 234.395L607.41 243.533C607.385 243.934 607.204 244.311 606.905 244.581C606.606 244.85 606.214 244.992 605.811 244.976C605.551 244.954 605.294 244.897 605.048 244.809L597.234 239.429C599.699 237.128 602.728 235.519 606.014 234.764ZM594.49 242.793L601.469 248.758C601.628 248.875 601.761 249.026 601.858 249.199C601.954 249.372 602.013 249.563 602.03 249.761C602.047 249.959 602.022 250.157 601.956 250.344C601.89 250.531 601.785 250.702 601.648 250.845C601.561 250.973 601.449 251.081 601.317 251.161C601.185 251.241 601.038 251.292 600.884 251.311L591.699 253.911C591.446 250.005 592.422 246.117 594.49 242.793ZM592.892 258.206L602.232 256.655C602.597 256.632 602.958 256.739 603.251 256.957C603.544 257.176 603.75 257.492 603.831 257.848C603.892 257.995 603.915 258.155 603.898 258.313C603.882 258.472 603.826 258.623 603.735 258.754L600.157 267.105C596.823 265.018 594.269 261.89 592.892 258.206ZM614.293 269.527C612.96 269.817 611.601 269.973 610.237 269.992C608.217 269.964 606.21 269.659 604.272 269.085L608.889 260.961C609.109 260.688 609.419 260.5 609.764 260.433C610.109 260.365 610.466 260.421 610.774 260.592C611.049 260.776 611.305 260.988 611.537 261.224L616.047 269.157C615.455 269.246 614.87 269.369 614.293 269.527ZM625.829 261.57C624.37 263.793 622.434 265.664 620.162 267.045L616.488 258.48C616.395 258.138 616.429 257.774 616.582 257.454C616.735 257.134 616.998 256.88 617.323 256.738C617.588 256.629 617.871 256.568 618.158 256.559L627.606 258.11C627.194 259.359 626.595 260.537 625.829 261.606V261.57Z" fill="white"/>
<path d="M360.113 493.262C363.157 493.262 366.132 492.36 368.663 490.669C371.193 488.978 373.166 486.574 374.331 483.762C375.495 480.95 375.8 477.856 375.206 474.871C374.612 471.886 373.147 469.144 370.995 466.992C368.842 464.84 366.1 463.374 363.115 462.78C360.13 462.186 357.036 462.491 354.224 463.656C351.412 464.821 349.009 466.793 347.318 469.324C345.627 471.854 344.724 474.83 344.724 477.873C344.724 481.955 346.345 485.869 349.231 488.755C352.117 491.641 356.032 493.262 360.113 493.262Z" fill="#00A0DF"/>
<path d="M373.295 477.889C373.295 480.054 372.868 482.199 372.039 484.199C371.209 486.199 369.994 488.016 368.461 489.547C366.929 491.077 365.11 492.29 363.109 493.116C361.107 493.943 358.962 494.366 356.797 494.363C356.323 494.364 355.849 494.34 355.377 494.292L348.279 501.449V492.001C345.812 490.517 343.777 488.412 342.377 485.895C340.977 483.379 340.261 480.54 340.3 477.661C340.339 474.782 341.132 471.963 342.6 469.486C344.068 467.009 346.16 464.96 348.666 463.543C351.173 462.126 354.007 461.391 356.887 461.411C359.766 461.431 362.59 462.205 365.077 463.657C367.564 465.108 369.627 467.186 371.06 469.683C372.494 472.18 373.248 475.009 373.247 477.889H373.295Z" stroke="white" stroke-width="1.01941" stroke-miterlimit="10"/>
<path d="M351.774 479.196L355.842 484.242L366.114 473.982" stroke="white" stroke-width="1.01941" stroke-miterlimit="10"/>
<path d="M332.27 450.342H380.453C384.693 450.342 388.759 452.026 391.757 455.024C394.754 458.022 396.439 462.088 396.439 466.328V495.614C396.439 499.854 394.754 503.92 391.757 506.918C388.759 509.916 384.693 511.6 380.453 511.6H335.384C331.144 511.6 327.078 509.916 324.08 506.918C321.083 503.92 319.398 499.854 319.398 495.614V463.214C319.397 461.523 319.729 459.849 320.375 458.286C321.021 456.724 321.969 455.304 323.165 454.109C324.361 452.913 325.78 451.965 327.343 451.319C328.905 450.673 330.579 450.341 332.27 450.342Z" stroke="white" stroke-width="1.01941"/>
<path d="M357.918 558.543V511.792" stroke="white" stroke-width="1.01941"/>
<path d="M36.313 558.542V494.695" stroke="white" stroke-width="1.01941"/>
<g opacity="0.3">
<path opacity="0.3" d="M278.599 497.214C271.108 497.214 267.374 489.735 263.759 482.505C260.145 475.276 256.602 468.19 249.539 468.19C242.477 468.19 239.006 475.157 235.331 482.505C231.657 489.854 227.971 497.214 220.491 497.214C213.011 497.214 209.254 489.723 205.639 482.494C202.024 475.264 198.481 468.178 191.431 468.178C184.381 468.178 180.909 475.145 177.223 482.494C173.537 489.842 169.851 497.203 162.383 497.203C154.915 497.203 151.181 489.723 147.567 482.494C143.952 475.264 140.409 468.178 133.359 468.178C126.309 468.178 122.837 475.145 119.139 482.494C115.441 489.842 111.778 497.214 104.311 497.214C96.8429 497.214 93.0493 489.735 89.4705 482.505C85.8917 475.276 82.3128 468.19 75.2745 468.19V467.498C82.7423 467.498 86.4762 474.978 90.0908 482.219C93.7054 489.46 97.2485 496.534 104.299 496.534C111.349 496.534 114.82 489.568 118.519 482.219C122.217 474.871 125.879 467.498 133.347 467.498C140.815 467.498 144.561 474.978 148.163 482.219C151.766 489.46 155.321 496.534 162.371 496.534C169.421 496.534 172.893 489.568 176.591 482.219C180.289 474.871 183.951 467.498 191.419 467.498C198.887 467.498 202.633 474.978 206.247 482.207C209.862 489.436 213.405 496.523 220.479 496.523C227.553 496.523 231.013 489.556 234.699 482.207C238.385 474.859 242.048 467.486 249.527 467.486C257.007 467.486 260.753 474.966 264.368 482.207C267.982 489.448 271.525 496.523 278.587 496.523C285.65 496.523 289.133 489.556 292.819 482.207C296.505 474.859 300.18 467.498 307.636 467.498V468.19C300.597 468.19 297.126 475.145 293.44 482.505C289.753 489.866 286.091 497.214 278.599 497.214Z" fill="#00A0DF"/>
</g>
<g opacity="0.6">
<path opacity="0.6" d="M284.242 497.214C276.762 497.214 273.016 489.735 269.402 482.505C265.787 475.276 262.244 468.19 255.194 468.19C248.143 468.19 244.66 475.157 240.974 482.505C237.288 489.854 233.625 497.214 226.134 497.214C218.642 497.214 214.908 489.723 211.282 482.494C207.655 475.264 204.124 468.178 197.086 468.178C190.047 468.178 186.552 475.145 182.866 482.494C179.18 489.842 175.493 497.203 168.026 497.203C160.558 497.203 156.824 489.723 153.209 482.494C149.595 475.264 146.052 468.178 139.001 468.178C131.951 468.178 128.48 475.145 124.793 482.494C121.107 489.842 117.421 497.214 109.953 497.214C102.485 497.214 98.7514 489.735 95.1368 482.505C91.5222 475.276 87.9792 468.19 80.9289 468.19V467.498C88.3967 467.498 92.1425 474.978 95.7572 482.219C99.3718 489.46 102.915 496.534 109.953 496.534C116.992 496.534 120.487 489.568 124.173 482.219C127.859 474.871 131.533 467.498 139.001 467.498C146.469 467.498 150.215 474.978 153.83 482.219C157.444 489.46 160.987 496.534 168.026 496.534C175.064 496.534 178.559 489.568 182.245 482.219C185.932 474.871 189.618 467.498 197.086 467.498C204.553 467.498 208.287 474.978 211.902 482.207C215.517 489.436 219.06 496.523 226.134 496.523C233.208 496.523 236.667 489.556 240.354 482.207C244.04 474.859 247.702 467.486 255.194 467.486C262.685 467.486 266.407 474.966 270.022 482.207C273.637 489.448 277.18 496.523 284.242 496.523C291.304 496.523 294.787 489.556 298.486 482.207C302.184 474.859 305.834 467.498 313.302 467.498V468.19C306.264 468.19 302.78 475.145 299.094 482.505C295.408 489.866 291.734 497.214 284.242 497.214Z" fill="#00A0DF"/>
</g>
<path d="M289.885 497.214C282.393 497.214 278.659 489.735 275.044 482.505C271.43 475.276 267.887 468.19 260.824 468.19C253.762 468.19 250.291 475.157 246.605 482.505C242.918 489.854 239.256 497.214 231.776 497.214C224.297 497.214 220.539 489.723 216.912 482.494C213.286 475.264 209.755 468.178 202.716 468.178C195.678 468.178 192.195 475.145 188.496 482.494C184.798 489.842 181.136 497.203 173.668 497.203C166.2 497.203 162.455 489.723 158.84 482.494C155.225 475.264 151.682 468.178 144.644 468.178C137.606 468.178 134.11 475.145 130.424 482.494C126.738 489.842 123.076 497.214 115.596 497.214C108.116 497.214 104.394 489.735 100.779 482.505C97.1649 475.276 93.6219 468.19 86.5835 468.19V467.498C94.0513 467.498 97.7852 474.978 101.4 482.219C105.014 489.46 108.557 496.534 115.596 496.534C122.634 496.534 126.129 489.568 129.816 482.219C133.502 474.871 137.188 467.498 144.656 467.498C152.124 467.498 155.858 474.978 159.472 482.219C163.087 489.46 166.63 496.534 173.68 496.534C180.73 496.534 184.202 489.568 187.888 482.219C191.574 474.871 195.26 467.498 202.728 467.498C210.196 467.498 213.93 474.978 217.545 482.207C221.159 489.436 224.702 496.523 231.788 496.523C238.874 496.523 242.322 489.556 245.996 482.207C249.671 474.859 253.357 467.486 260.836 467.486C268.316 467.486 272.062 474.966 275.677 482.207C279.291 489.448 282.834 496.523 289.896 496.523C296.959 496.523 300.442 489.556 304.128 482.207C307.814 474.859 311.477 467.498 318.945 467.498V468.19C311.906 468.19 308.423 475.145 304.749 482.505C301.074 489.866 297.376 497.214 289.885 497.214Z" fill="#00A0DF"/>
<path d="M266.67 450.342H116.503C107.674 450.342 100.517 457.499 100.517 466.328V495.602C100.517 504.431 107.674 511.588 116.503 511.588H266.67C275.499 511.588 282.656 504.431 282.656 495.602V466.328C282.656 457.499 275.499 450.342 266.67 450.342Z" stroke="white" stroke-width="1.01941"/>
<path d="M188.95 558.543V511.792" stroke="white" stroke-width="1.01941"/>
<path d="M15.9251 491.377C21.4319 490.358 25.0702 485.069 24.0516 479.562C23.033 474.055 17.7431 470.417 12.2364 471.435C6.7296 472.454 3.09126 477.744 4.10989 483.251C5.12852 488.757 10.4184 492.396 15.9251 491.377Z" fill="#00A0DF"/>
<path d="M59.3008 468.941C60.9728 468.889 62.638 469.174 64.1978 469.778C65.7576 470.382 67.1802 471.293 68.3811 472.457C69.582 473.622 70.5368 475.016 71.1889 476.556C71.8409 478.096 72.1769 479.752 72.1769 481.425C72.1769 483.097 71.8409 484.753 71.1889 486.293C70.5368 487.834 69.582 489.228 68.3811 490.392C67.1802 491.556 65.7576 492.468 64.1978 493.072C62.638 493.676 60.9728 493.96 59.3008 493.909H12.4898C10.8179 493.96 9.15265 493.676 7.59285 493.072C6.03305 492.468 4.61048 491.556 3.40956 490.392C2.20864 489.228 1.25384 487.834 0.601796 486.293C-0.050243 484.753 -0.38623 483.097 -0.38623 481.425C-0.38623 479.752 -0.050243 478.096 0.601796 476.556C1.25384 475.016 2.20864 473.622 3.40956 472.457C4.61048 471.293 6.03305 470.382 7.59285 469.778C9.15265 469.174 10.8179 468.889 12.4898 468.941H59.3008Z" stroke="white" stroke-width="1.01941" stroke-miterlimit="10"/>
<path d="M664.468 333.783H654.328" stroke="white" stroke-width="1.01941" stroke-miterlimit="10"/>
<path d="M563.068 333.783H552.928" stroke="white" stroke-width="1.01941" stroke-miterlimit="10"/>
<path d="M258.928 215.488C258.879 216.978 259.131 218.462 259.667 219.853C260.204 221.244 261.014 222.513 262.051 223.584C263.088 224.655 264.329 225.507 265.702 226.089C267.074 226.671 268.55 226.97 270.04 226.97C271.531 226.97 273.007 226.671 274.379 226.089C275.752 225.507 276.993 224.655 278.03 223.584C279.067 222.513 279.877 221.244 280.414 219.853C280.95 218.462 281.201 216.978 281.153 215.488" stroke="white" stroke-width="1.01941" stroke-miterlimit="10"/>
</g>
<defs>
<clipPath id="clip0">
<rect width="1014" height="715.765" fill="white" transform="translate(0 0.353516)"/>
</clipPath>
</defs>
</svg>
