<svg width="14" height="14" viewBox="0 0 14 14" fill="none" xmlns="http://www.w3.org/2000/svg">
<g>
<rect opacity="0.01" width="14" height="14" fill="black"/>
<path fill-rule="evenodd" clip-rule="evenodd" d="M1 1H0V0H1V1ZM0 7H1V6H0V7ZM0 8H1V9H0V8ZM0 13H1V12H0V13ZM1 11H0V10H1V11ZM0 5H1V4H0V5ZM1 3H0V2H1V3ZM12 9H13V8H12V9ZM12 6H13V7H12V6ZM11 0H10V1H11V0ZM12 0H13V1H12V0ZM13 2H12V3H13V2ZM12 4H13V5H12V4ZM4 1H5V0H4V1ZM13 14H12V13H13V14ZM13 12H14V13H13V12ZM13 12V10H12V12H10V13H12V12H13ZM8 1H9V0H8V1ZM4 13H5V12H4V13ZM3 13H2V12H3V13ZM2 1H3V0H2V1ZM9 13H8V12H9V13ZM6 1H7V0H6V1ZM7 13H6V12H7V13Z" fill="black"/>
</g>
</svg>
