<svg width="10" height="10" viewBox="0 0 10 10" fill="none" xmlns="http://www.w3.org/2000/svg">
<g>
<path d="M9.60938 4.60938H5.39062V0.390625C5.39062 0.174883 5.21574 0 5 0C4.78426 0 4.60938 0.174883 4.60938 0.390625V4.60938H0.390625C0.174883 4.60938 0 4.78426 0 5C0 5.21574 0.174883 5.39062 0.390625 5.39062H4.60938V9.60938C4.60938 9.82512 4.78426 10 5 10C5.21574 10 5.39062 9.82512 5.39062 9.60938V5.39062H9.60938C9.82512 5.39062 10 5.21574 10 5C10 4.78426 9.82512 4.60938 9.60938 4.60938Z" fill="black"/>
</g>
</svg>
